# Blender v2.79 (sub 0) OBJ File: ''
# www.blender.org
mtllib big_wheel.mtl
o Plane.005
v 0.062500 0.187500 -0.250000
v -0.062500 0.312500 -0.125000
v -0.062500 -0.125000 0.312500
v 0.062500 0.125000 0.312500
v -0.062500 0.125000 0.312500
v -0.062500 -0.125000 0.250000
v 0.062500 -0.187500 0.250000
v 0.062500 -0.125000 0.250000
v 0.062500 -0.125000 0.312500
v -0.062500 0.250000 0.187500
v 0.062500 0.312500 0.125000
v 0.062500 0.250000 -0.187500
v -0.062500 0.312500 0.125000
v -0.062500 0.187500 0.187500
v 0.062500 -0.187500 0.187500
v 0.062500 -0.312500 0.125000
v -0.062500 -0.250000 -0.187500
v -0.062500 -0.312500 -0.125000
v -0.062500 -0.312500 0.125000
v 0.062500 -0.250000 0.187500
v 0.062500 -0.312500 -0.125000
v -0.062500 -0.187500 -0.250000
v 0.062500 -0.125000 -0.250000
v 0.062500 -0.187500 -0.250000
v -0.062500 -0.125000 -0.250000
v 0.062500 -0.125000 -0.312500
v -0.062500 0.125000 -0.312500
v -0.062500 -0.125000 -0.312500
v -0.062500 0.125000 -0.250000
v -0.062500 0.125000 0.250000
v 0.062500 0.125000 -0.250000
v 0.062500 0.125000 -0.312500
v -0.062500 0.187500 0.250000
v 0.062500 0.125000 0.250000
v 0.062500 0.312500 -0.125000
v -0.062500 -0.187500 0.250000
v -0.062500 -0.187500 0.187500
v 0.062500 -0.187500 -0.187500
v 0.062500 -0.250000 -0.187500
v -0.062500 -0.187500 -0.187500
v -0.062500 -0.250000 0.187500
v 0.062500 -0.250000 0.125000
v -0.062500 -0.250000 -0.125000
v -0.062500 -0.250000 0.125000
v 0.062500 -0.250000 -0.125000
v -0.062500 0.187500 -0.250000
v 0.062500 0.187500 0.250000
v 0.062500 0.187500 0.187500
v -0.062500 0.187500 -0.187500
v -0.062500 0.250000 -0.187500
v 0.062500 0.187500 -0.187500
v 0.062500 0.250000 0.187500
v -0.062500 0.250000 0.125000
v 0.062500 0.250000 -0.125000
v 0.062500 0.250000 0.125000
v -0.062500 0.250000 -0.125000
vt 0.500000 0.995296
vt 0.500000 0.972796
vt 0.500000 0.972796
vt 0.320000 0.950296
vt 0.410000 0.927796
vt 0.410000 0.950296
vt 0.590000 0.927796
vt 0.635000 0.950296
vt 0.590000 0.950296
vt 0.455000 0.995296
vt 0.410000 0.972796
vt 0.455000 0.972796
vt 0.590000 0.972796
vt 0.590000 0.995296
vt 0.590000 0.995296
vt 0.590000 0.950296
vt 0.545000 0.972796
vt 0.590000 0.972796
vt 0.590000 0.972796
vt 0.545000 0.950296
vt 0.410000 0.927796
vt 0.365000 0.905296
vt 0.410000 0.905296
vt 0.500000 0.995296
vt 0.590000 0.972796
vt 0.590000 0.995296
vt 0.590000 0.972796
vt 0.545000 0.950296
vt 0.590000 0.950296
vt 0.590000 0.972796
vt 0.545000 0.950296
vt 0.590000 0.950296
vt 0.680000 0.995296
vt 0.635000 0.972796
vt 0.680000 0.972796
vt 0.320000 0.972796
vt 0.410000 0.950296
vt 0.410000 0.972796
vt 0.900000 0.700000
vt 0.100000 0.800000
vt 0.100000 0.700000
vt 0.680000 0.927796
vt 0.635000 0.905296
vt 0.680000 0.905296
vt 0.545000 0.950296
vt 0.635000 0.927796
vt 0.590000 0.950296
vt 0.635000 0.950296
vt 0.590000 0.927796
vt 0.635000 0.950296
vt 0.635000 0.927796
vt 0.000000 0.700000
vt 1.000000 0.300000
vt 1.000000 0.700000
vt 0.100000 0.300000
vt 0.900000 0.200000
vt 0.900000 0.300000
vt 0.545000 0.972796
vt 1.000000 0.700000
vt 0.000000 0.300000
vt 1.000000 0.300000
vt 0.100000 0.800000
vt 0.100000 0.700000
vt 0.900000 0.700000
vt 0.200000 0.900000
vt 0.800000 0.800000
vt 0.800000 0.900000
vt 0.900000 0.200000
vt 0.100000 0.300000
vt 0.100000 0.200000
vt 0.200000 0.200000
vt 0.200000 0.100000
vt 0.800000 0.100000
vt 0.900000 0.800000
vt 0.320000 0.927796
vt 0.635000 0.927796
vt 0.410000 0.995296
vt 0.545000 0.972796
vt 0.590000 0.950296
vt 0.365000 0.927796
vt 0.800000 0.100000
vt 0.800000 0.200000
vt 0.200000 0.200000
vt 0.500000 0.972796
vt 0.800000 0.200000
vt 0.545000 0.972796
vt 0.635000 0.995296
vt 0.320000 0.950296
vt 0.590000 0.927796
vt 0.590000 0.950296
vt 0.635000 0.927796
vt 0.800000 0.800000
vt 0.200000 0.900000
vt 0.200000 0.800000
vt 0.200000 0.800000
vt 0.000000 0.300000
vt 0.100000 0.200000
vt 0.200000 0.100000
vt 0.000000 0.700000
vt 0.800000 0.900000
vt 0.900000 0.800000
vt 0.900000 0.300000
vt 0.590000 0.927796
vt 0.635000 0.927796
vt 0.635000 0.950296
vt 0.590000 0.950296
vt 0.590000 0.995296
vt 0.500000 0.972796
vt 0.500000 0.995296
vt 0.590000 0.972796
vt 0.500000 0.995296
vt 0.590000 0.972796
vn 0.7071 0.0000 -0.7071
vn -0.7071 -0.0000 -0.7071
vn 0.0000 0.0000 1.0000
vn 0.0000 -1.0000 0.0000
vn -0.7071 -0.0000 0.7071
vn 0.7071 0.0000 0.7071
vn -0.0000 1.0000 0.0000
vn 0.0000 0.0000 -1.0000
vn 1.0000 0.0000 0.0000
vn -1.0000 -0.0000 0.0000
usemtl None.006
s 1
f 35/1/1 56/2/2 2/3/2
f 3/4/3 4/5/3 5/6/3
f 6/7/3 7/8/3 8/9/3
f 3/10/4 8/11/4 9/12/4
f 13/13/5 55/14/6 11/15/6
f 46/16/7 51/17/7 1/18/7
f 12/19/8 51/17/8 49/20/8
f 30/21/7 4/22/7 34/23/7
f 18/24/4 16/25/4 19/26/4
f 17/27/8 38/28/8 39/29/8
f 22/30/8 23/31/8 24/32/8
f 25/33/4 26/34/4 23/35/4
f 27/36/8 26/37/8 28/38/8
f 31/39/9 47/40/9 34/41/9
f 27/42/7 31/43/7 32/44/7
f 1/18/8 29/45/8 46/16/8
f 47/46/7 14/47/7 33/48/7
f 48/49/3 10/50/3 14/47/3
f 48/49/3 52/51/3 10/50/3
f 27/52/10 3/53/10 5/54/10
f 25/55/10 36/56/10 6/57/10
f 17/27/8 40/58/8 38/28/8
f 32/59/9 9/60/9 26/61/9
f 46/62/10 29/63/10 30/64/10
f 50/65/10 14/66/10 10/67/10
f 24/68/9 8/69/9 7/70/9
f 40/71/10 17/72/10 41/73/10
f 31/39/9 1/74/9 47/40/9
f 3/4/3 9/75/3 4/5/3
f 6/7/3 36/76/3 7/8/3
f 3/10/4 6/77/4 8/11/4
f 1/18/8 31/78/8 29/45/8
f 12/19/8 49/20/8 50/79/8
f 35/1/7 13/13/7 11/15/7
f 30/21/7 5/80/7 4/22/7
f 39/81/9 38/82/9 15/83/9
f 18/24/4 21/84/4 16/25/4
f 40/71/10 41/73/10 37/85/10
f 22/30/8 25/86/8 23/31/8
f 25/33/4 28/87/4 26/34/4
f 27/36/8 32/88/8 26/37/8
f 34/89/3 33/48/3 30/90/3
f 27/42/7 29/91/7 31/43/7
f 51/92/9 52/93/9 48/94/9
f 35/1/7 2/3/7 13/13/7
f 50/65/10 49/95/10 14/66/10
f 34/89/3 47/46/3 33/48/3
f 27/52/10 28/96/10 3/53/10
f 25/55/10 22/97/10 36/56/10
f 39/81/9 15/83/9 20/98/9
f 32/59/9 4/99/9 9/60/9
f 51/92/9 12/100/9 52/93/9
f 46/62/10 30/64/10 33/101/10
f 24/68/9 23/102/9 8/69/9
f 37/103/3 41/104/3 20/105/3
f 37/103/3 20/105/3 15/106/3
f 36/76/4 15/106/4 7/8/4
f 24/32/4 40/58/4 22/30/4
f 16/25/6 44/107/5 19/26/5
f 18/24/2 45/108/1 21/84/1
f 44/107/4 20/105/4 41/104/4
f 39/29/4 43/109/4 17/27/4
f 45/108/1 16/25/6 21/84/1
f 19/26/5 43/109/2 18/24/2
f 36/76/4 37/103/4 15/106/4
f 24/32/4 38/28/4 40/58/4
f 16/25/6 42/110/6 44/107/5
f 18/24/2 43/109/2 45/108/1
f 44/107/4 42/110/4 20/105/4
f 39/29/4 45/108/4 43/109/4
f 45/108/1 42/110/6 16/25/6
f 19/26/5 44/107/5 43/109/2
f 55/14/7 10/50/7 52/51/7
f 50/79/7 54/111/7 12/19/7
f 56/2/2 13/13/5 2/3/2
f 11/15/6 54/111/1 35/1/1
f 47/46/7 48/49/7 14/47/7
f 46/16/7 49/20/7 51/17/7
f 13/13/5 53/112/5 55/14/6
f 35/1/1 54/111/1 56/2/2
f 55/14/7 53/112/7 10/50/7
f 50/79/7 56/2/7 54/111/7
f 56/2/2 53/112/5 13/13/5
f 11/15/6 55/14/6 54/111/1
