# Blender v2.79 (sub 0) OBJ File: ''
# www.blender.org
mtllib license_plate.mtl
o Plane
v -0.031250 0.312500 0.125000
v -0.031250 -0.312500 -0.125000
v -0.031250 -0.312500 0.125000
v 0.031250 -0.312500 -0.125000
v 0.031250 0.312500 0.125000
v 0.031250 -0.312500 0.125000
v 0.031250 0.312500 -0.125000
v -0.031250 0.312500 -0.125000
vt 0.187500 0.250000
vt 0.812500 0.000000
vt 0.812500 0.250000
vt 0.187500 0.000000
vt 0.812500 0.250000
vt 0.187500 0.250000
vt 0.625000 0.000000
vt 0.375000 0.062500
vt 0.375000 0.000000
vt 0.625000 0.000000
vt 0.375000 0.062500
vt 0.375000 0.000000
vt 0.812500 0.000000
vt 0.187500 0.062500
vt 0.187500 0.000000
vt 0.812500 0.000000
vt 0.187500 0.062500
vt 0.187500 0.000000
vt 0.187500 0.000000
vt 0.812500 0.000000
vt 0.625000 0.062500
vt 0.625000 0.062500
vt 0.812500 0.062500
vt 0.812500 0.062500
vn -1.0000 0.0000 0.0000
vn 1.0000 0.0000 -0.0000
vn 0.0000 1.0000 -0.0000
vn 0.0000 -1.0000 0.0000
vn -0.0000 0.0000 -1.0000
vn 0.0000 0.0000 1.0000
usemtl None
s 1
f 1/1/1 2/2/1 3/3/1
f 4/4/2 5/5/2 6/6/2
f 1/7/3 7/8/3 8/9/3
f 2/10/4 6/11/4 3/12/4
f 8/13/5 4/14/5 2/15/5
f 3/16/6 5/17/6 1/18/6
f 1/1/1 8/19/1 2/2/1
f 4/4/2 7/20/2 5/5/2
f 1/7/3 5/21/3 7/8/3
f 2/10/4 4/22/4 6/11/4
f 8/13/5 7/23/5 4/14/5
f 3/16/6 6/24/6 5/17/6
