# Blender v2.81 (sub 16) OBJ File: ''
# www.blender.org
mtllib suv_body.mtl
o Import.001
v -0.625000 0.937500 0.000000
v 0.625000 1.000000 0.000000
v 0.625000 0.937500 0.000000
v -0.625000 1.000000 0.000000
v 0.625000 1.000000 0.125000
v -0.625000 1.000000 0.125000
v 0.625000 0.937500 0.125000
v -0.625000 0.937500 0.125000
v 0.562500 0.187500 0.562500
v 0.625000 0.187500 0.062500
v 0.625000 0.187500 0.562500
v 0.625000 0.875000 0.562500
v 0.562500 0.875000 0.062500
v 0.562500 0.875000 0.562500
v 0.562500 0.187500 0.062500
v 0.625000 0.875000 0.062500
v -0.625000 0.187500 0.562500
v -0.562500 0.187500 0.062500
v -0.562500 0.187500 0.562500
v -0.562500 0.875000 0.562500
v -0.625000 0.875000 0.062500
v -0.625000 0.875000 0.562500
v -0.625000 0.187500 0.062500
v -0.562500 0.875000 0.062500
v 0.625000 -1.000000 -0.000000
v -0.625000 -0.750000 -0.000000
v 0.625000 -0.750000 -0.000000
v 0.625000 0.937500 0.062500
v -0.625000 0.937500 0.062500
v 0.625000 -0.750000 0.062500
v -0.625000 -0.750000 0.062500
v -0.562500 0.250000 0.562500
v 0.562500 0.250000 0.500000
v 0.562500 0.250000 0.562500
v -0.562500 0.875000 0.500000
v -0.562500 0.250000 0.500000
v 0.562500 0.875000 0.500000
v -0.625000 -1.000000 0.062500
v -0.625000 -1.000000 0.187500
v -0.625000 -0.875000 0.187500
v -0.625000 -0.750000 0.625000
v -0.625000 -0.687500 1.062500
v 0.625000 0.250000 1.062500
v 0.625000 -0.687500 1.062500
v -0.625000 0.250000 1.125000
v 0.625000 -0.687500 1.125000
v 0.625000 0.250000 1.125000
v -0.625000 -0.687500 1.125000
v -0.625000 0.250000 1.062500
v 0.625000 -1.000000 0.062500
v 0.625000 -0.875000 0.187500
v -0.625000 -0.875000 0.625000
v 0.625000 0.937500 0.562500
v -0.625000 0.937500 0.562500
v -0.625000 -0.750000 1.125000
v 0.625000 -0.750000 1.125000
v -0.625000 -0.687500 0.062500
v 0.625000 -0.687500 0.062500
v -0.625000 0.187500 1.125000
v -0.625000 0.250000 0.562500
v 0.625000 0.250000 0.562500
v 0.625000 0.187500 1.125000
v 0.625000 -1.000000 0.187500
v -0.625000 -1.000000 -0.000000
v 0.625000 -0.750000 0.625000
v 0.625000 -0.875000 0.625000
v 0.125000 -1.000000 0.812500
v -0.125000 -0.875000 0.812500
v -0.125000 -1.000000 0.812500
v 0.312500 -1.000000 0.375000
v 0.312500 -0.875000 0.625000
v 0.312500 -1.000000 0.625000
v 0.250000 -1.000000 0.375000
v 0.250000 -0.875000 0.250000
v 0.250000 -0.875000 0.375000
v 0.312500 -0.875000 0.375000
v 0.125000 -0.875000 0.750000
v 0.125000 -0.875000 0.812500
v 0.125000 -1.000000 0.750000
v 0.250000 -0.875000 0.750000
v 0.250000 -1.000000 0.750000
v 0.250000 -0.875000 0.625000
v 0.250000 -1.000000 0.625000
v 0.125000 -1.000000 0.250000
v 0.125000 -0.875000 0.187500
v 0.125000 -0.875000 0.250000
v -0.125000 -1.000000 0.187500
v 0.125000 -1.000000 0.187500
v -0.125000 -0.875000 0.250000
v -0.125000 -0.875000 0.187500
v -0.250000 -1.000000 0.250000
v -0.250000 -0.875000 0.375000
v -0.250000 -0.875000 0.250000
v -0.250000 -1.000000 0.375000
v -0.312500 -0.875000 0.375000
v -0.312500 -1.000000 0.625000
v -0.312500 -1.000000 0.375000
v -0.250000 -1.000000 0.625000
v -0.250000 -0.875000 0.750000
v -0.250000 -0.875000 0.625000
v -0.312500 -0.875000 0.625000
v -0.250000 -1.000000 0.750000
v -0.125000 -0.875000 0.750000
v -0.125000 -1.000000 0.750000
v 0.250000 -1.000000 0.250000
v -0.125000 -1.000000 0.250000
vt 0.625000 0.515625
vt 0.937500 0.500000
vt 0.937500 0.515625
vt 0.312500 0.468750
vt 0.625000 0.437500
vt 0.625000 0.468750
vt 0.625000 0.500000
vt 0.937500 0.484375
vt 0.937500 0.500000
vt 0.500000 0.750000
vt 0.484375 0.718750
vt 0.500000 0.718750
vt 0.484375 0.750000
vt 0.500000 0.718750
vt 0.500000 0.750000
vt 0.625000 0.500000
vt 0.312500 0.437500
vt 0.625000 0.484375
vt 0.484375 0.750000
vt 0.484375 0.718750
vt 0.312500 0.734375
vt 0.296875 0.859375
vt 0.296875 0.734375
vt 0.250000 0.347656
vt 0.242188 0.386719
vt 0.242188 0.347656
vt 0.125000 0.386719
vt 0.117188 0.445313
vt 0.117188 0.386719
vt 0.921875 0.468750
vt 0.937500 0.296875
vt 0.937500 0.468750
vt 0.468750 0.859375
vt 0.296875 0.734375
vt 0.468750 0.734375
vt 0.312500 0.421875
vt 0.484375 0.296875
vt 0.484375 0.421875
vt 0.312500 0.734375
vt 0.296875 0.859375
vt 0.296875 0.734375
vt 0.617188 0.347656
vt 0.609375 0.386719
vt 0.609375 0.347656
vt 0.492188 0.386719
vt 0.484375 0.445313
vt 0.484375 0.386719
vt 0.625000 0.468750
vt 0.640625 0.296875
vt 0.640625 0.468750
vt 0.312500 0.421875
vt 0.484375 0.296875
vt 0.484375 0.421875
vt 0.312500 0.859375
vt 0.484375 0.734375
vt 0.484375 0.859375
vt 0.937500 1.000000
vt 0.625000 0.937500
vt 0.937500 0.937500
vt 0.906250 0.847656
vt 0.687500 0.851563
vt 0.687500 0.847656
vt 0.625000 0.984375
vt 0.937500 0.562500
vt 0.937500 0.984375
vt 0.484375 0.734375
vt 0.062500 0.718750
vt 0.484375 0.718750
vt 0.062500 0.734375
vt 0.062500 0.718750
vt 0.609375 0.562500
vt 0.328125 0.578125
vt 0.328125 0.562500
vt 0.437500 0.062500
vt 0.234375 0.066406
vt 0.234375 0.062500
vt 0.312500 0.171894
vt 0.593750 0.015644
vt 0.593750 0.171894
vt 0.921875 0.312500
vt 0.015625 0.062500
vt 0.000000 0.066406
vt 0.000000 0.062500
vt 0.218750 0.066406
vt 0.218750 0.062500
vt 0.000000 0.734375
vt 0.000000 0.765625
vt 0.031250 0.765625
vt 0.062500 0.875000
vt 0.062500 0.734375
vt 0.625000 0.765625
vt 0.937500 1.000000
vt 0.937500 0.765625
vt 0.625000 0.312500
vt 0.937500 0.078125
vt 0.937500 0.312500
vt 0.078124 0.984375
vt 0.312500 1.000000
vt 0.078126 1.000000
vt 0.078125 0.984375
vt 0.312500 1.000000
vt 0.078125 1.000000
vt 0.312500 0.453125
vt 0.000000 0.484375
vt 0.000000 0.453125
vt 0.312500 0.484375
vt 0.000000 0.593750
vt 0.000000 0.484375
vt 0.625000 0.453125
vt 0.312500 0.578125
vt 0.312500 0.453125
vt 0.625000 0.171875
vt 0.312500 0.296875
vt 0.312500 0.171875
vt 0.625000 0.484375
vt 0.937500 0.484375
vt 0.445313 0.050781
vt 0.226563 0.054688
vt 0.226563 0.050781
vt 0.484375 0.859375
vt 0.296875 0.734375
vt 0.296875 0.859375
vt 0.000000 0.718750
vt 0.312500 0.453125
vt 0.312500 0.718750
vt 0.000000 0.437500
vt 0.312500 0.156250
vt 0.312500 0.437500
vt 0.625000 0.078125
vt 0.937500 0.062500
vt 0.078124 0.734375
vt 0.062502 1.000000
vt 0.062500 0.734375
vt 0.078125 0.734375
vt 0.062500 1.000000
vt 0.062500 0.734375
vt 0.312500 0.578125
vt 0.625000 0.718750
vt 0.625000 0.578125
vt 0.625000 0.578125
vt 0.312500 0.718750
vt 0.312500 0.578125
vt 0.937500 0.296875
vt 0.625000 0.312500
vt 0.625000 0.296875
vt 0.312500 0.859375
vt 0.296875 1.000000
vt 0.296875 0.859375
vt 0.312500 0.859375
vt 0.296875 1.000000
vt 0.296875 0.859375
vt 0.312500 0.859375
vt 0.250000 0.386719
vt 0.125000 0.445313
vt 0.921875 0.296875
vt 0.312500 0.296875
vt 0.937500 0.000000
vt 0.937500 0.031250
vt 0.625000 0.031250
vt 0.312500 0.859375
vt 0.617188 0.386719
vt 0.492188 0.445313
vt 0.625000 0.296875
vt 0.312500 0.296875
vt 0.312500 0.734375
vt 0.625000 1.000000
vt 0.906250 0.851563
vt 0.625000 0.562500
vt 0.062500 0.734375
vt 0.484375 0.734375
vt 0.609375 0.578125
vt 0.437500 0.066406
vt 0.312500 0.015644
vt 0.640625 0.312500
vt 0.015625 0.066406
vt 0.062500 0.875000
vt 0.031250 0.875000
vt 0.031250 0.765625
vt 0.937500 0.031250
vt 0.625000 0.062500
vt 0.625000 0.031250
vt 0.312500 0.437500
vt 0.625000 1.000000
vt 0.312500 0.984375
vt 0.312500 0.984375
vt 0.000000 0.734375
vt 0.625000 0.000000
vt 0.937500 0.062500
vt 0.625000 0.578125
vt 0.625000 0.296875
vt 0.445313 0.054688
vt 0.000000 0.453125
vt 0.000000 0.156250
vt 0.625000 0.062500
vt 0.078127 1.000000
vt 0.078125 1.000000
vt 0.312500 0.718750
vt 0.625000 0.718750
vt 0.937500 0.312500
vt 0.312500 1.000000
vt 0.312500 1.000000
vt 0.031250 0.875000
vt 0.000000 0.765625
vt 0.312500 0.593750
vt 0.312500 0.484375
vt 0.000000 0.718750
vt 0.000000 0.437500
vt 0.000000 0.718750
vt 0.062500 0.718750
vt 0.156250 0.973093
vt 0.170313 0.969577
vt 0.170313 0.973093
vt 0.128125 0.976609
vt 0.142188 0.973093
vt 0.142188 0.976609
vt 0.170313 0.973093
vt 0.177344 0.976609
vt 0.170313 0.976609
vt 0.149219 0.983640
vt 0.142188 0.980124
vt 0.149219 0.980124
vt 0.149219 0.973093
vt 0.156250 0.976609
vt 0.149219 0.976609
vt 0.177344 0.973093
vt 0.170313 0.969577
vt 0.177344 0.969577
vt 0.177344 0.973093
vt 0.184375 0.976609
vt 0.177344 0.976609
vt 0.142188 0.973093
vt 0.135156 0.969577
vt 0.142188 0.969577
vt 0.142188 0.973093
vt 0.149219 0.976609
vt 0.142188 0.976609
vt 0.156250 0.983640
vt 0.170313 0.980124
vt 0.170313 0.983640
vt 0.156250 0.980124
vt 0.149219 0.976609
vt 0.156250 0.976609
vt 0.170313 0.980124
vt 0.163281 0.976609
vt 0.170313 0.976609
vt 0.184375 0.983640
vt 0.177344 0.980124
vt 0.184375 0.980124
vt 0.128125 0.980124
vt 0.142188 0.976609
vt 0.142188 0.980124
vt 0.163281 0.980124
vt 0.156250 0.976609
vt 0.163281 0.976609
vt 0.184375 0.973093
vt 0.177344 0.969577
vt 0.184375 0.969577
vt 0.156250 0.973093
vt 0.149219 0.969577
vt 0.156250 0.969577
vt 0.149219 0.980124
vt 0.142188 0.976609
vt 0.149219 0.976609
vt 0.187500 0.984375
vt 0.125000 0.968750
vt 0.187500 0.968750
vt 0.218750 0.968750
vt 0.093750 0.937500
vt 0.218750 0.937500
vt 0.078125 0.937500
vt 0.234375 0.875000
vt 0.234375 0.937500
vt 0.093750 0.875000
vt 0.218750 0.843750
vt 0.218750 0.875000
vt 0.125000 0.828125
vt 0.187500 0.843750
vt 0.125000 0.843750
vt 0.234375 0.937500
vt 0.078125 0.875000
vt 0.234375 0.875000
vt 0.218750 0.937500
vt 0.093750 0.968750
vt 0.093750 0.937500
vt 0.187500 0.968750
vt 0.125000 0.984375
vt 0.125000 0.968750
vt 0.218750 0.843750
vt 0.093750 0.875000
vt 0.093750 0.843750
vt 0.187500 0.828125
vt 0.125000 0.843750
vt 0.125000 0.828125
vt 0.156250 0.969577
vt 0.128125 0.973093
vt 0.177344 0.973093
vt 0.142188 0.983640
vt 0.156250 0.973093
vt 0.170313 0.973093
vt 0.184375 0.973093
vt 0.135156 0.973093
vt 0.149219 0.973093
vt 0.156250 0.980124
vt 0.149219 0.980124
vt 0.163281 0.980124
vt 0.177344 0.983640
vt 0.128125 0.976609
vt 0.156250 0.980124
vt 0.177344 0.973093
vt 0.149219 0.973093
vt 0.142188 0.980124
vt 0.125000 0.984375
vt 0.093750 0.968750
vt 0.078125 0.875000
vt 0.093750 0.843750
vt 0.187500 0.828125
vt 0.078125 0.937500
vt 0.218750 0.968750
vt 0.187500 0.984375
vt 0.218750 0.875000
vt 0.187500 0.843750
vn 0.0000 0.0000 -1.0000
vn 0.0000 1.0000 0.0000
vn 0.0000 -0.0000 1.0000
vn -1.0000 0.0000 0.0000
vn 1.0000 0.0000 0.0000
vn 0.0000 -1.0000 -0.0000
vn 0.5774 -0.5774 -0.5774
vn -0.7071 -0.0000 -0.7071
vn 0.7071 0.0000 -0.7071
vn -0.7071 -0.7071 0.0000
vn -0.5774 -0.5774 0.5774
vn -0.9045 -0.3015 0.3015
vn -0.7071 0.0000 0.7071
vn 0.7071 -0.7071 0.0000
vn 0.9045 -0.3015 0.3015
vn 0.5774 -0.5774 0.5774
vn -0.5774 -0.5774 -0.5774
vn 0.7071 0.0000 0.7071
usemtl None.001
s off
f 1/1/1 2/2/1 3/3/1
f 4/4/2 5/5/2 2/6/2
f 6/7/3 7/8/3 5/9/3
f 4/10/4 8/11/4 6/12/4
f 7/13/5 2/14/5 5/15/5
f 1/1/1 4/16/1 2/2/1
f 4/4/2 6/17/2 5/5/2
f 6/7/3 8/18/3 7/8/3
f 4/10/4 1/19/4 8/11/4
f 7/13/5 3/20/5 2/14/5
s 1
f 9/21/6 10/22/6 11/23/6
f 12/24/2 13/25/2 14/26/2
f 15/27/1 16/28/1 10/29/1
f 14/30/3 11/31/3 12/32/3
f 12/33/5 10/34/5 16/35/5
f 14/36/4 15/37/4 9/38/4
f 17/39/6 18/40/6 19/41/6
f 20/42/2 21/43/2 22/44/2
f 23/45/1 24/46/1 18/47/1
f 22/48/3 19/49/3 20/50/3
f 19/51/5 24/52/5 20/53/5
f 22/54/4 23/55/4 17/56/4
f 25/57/7 26/58/8 27/59/9
f 28/60/2 1/61/2 29/62/2
f 26/58/8 3/3/1 27/59/9
f 29/63/3 30/64/3 28/65/3
f 28/66/5 27/67/9 3/20/5
f 29/68/4 26/69/8 31/70/4
f 32/71/6 33/72/6 34/73/6
f 14/74/2 35/75/2 20/76/2
f 36/77/1 37/78/1 33/79/1
f 20/50/3 34/80/3 14/30/3
f 34/81/5 37/82/5 14/83/5
f 20/76/4 36/84/4 32/85/4
f 38/86/10 39/87/11 40/88/12
f 40/88/12 41/89/13 31/90/4
f 42/91/1 43/92/1 44/93/1
f 45/94/3 46/95/3 47/96/3
f 46/97/5 43/98/5 47/99/5
f 48/100/4 49/101/4 42/102/4
f 50/103/14 39/104/11 38/105/10
f 51/106/15 52/107/11 40/108/12
f 29/109/2 53/110/2 28/111/2
f 16/112/6 22/113/6 21/114/6
f 54/115/3 12/32/3 53/116/3
f 21/117/1 28/118/1 16/119/1
f 16/35/5 53/120/5 12/33/5
f 29/121/4 22/54/4 54/122/4
f 55/123/6 30/124/6 56/125/6
f 46/126/2 57/127/2 48/128/2
f 48/129/3 56/130/3 46/95/3
f 56/131/5 58/132/5 46/133/5
f 48/134/4 31/135/4 55/136/4
f 11/137/6 59/138/6 17/139/6
f 60/140/2 47/141/2 61/142/2
f 61/143/1 17/144/1 60/145/1
f 17/146/4 45/147/4 60/148/4
f 61/149/5 62/150/5 11/151/5
f 9/21/6 15/152/6 10/22/6
f 12/24/2 16/153/2 13/25/2
f 15/27/1 13/154/1 16/28/1
f 14/30/3 9/155/3 11/31/3
f 12/33/5 11/151/5 10/34/5
f 14/36/4 13/156/4 15/37/4
f 63/157/16 51/158/15 40/159/12
f 17/39/6 23/160/6 18/40/6
f 20/42/2 24/161/2 21/43/2
f 23/45/1 21/162/1 24/46/1
f 22/48/3 17/163/3 19/49/3
f 19/51/5 18/164/5 24/52/5
f 22/54/4 21/165/4 23/55/4
f 25/57/7 64/166/17 26/58/8
f 28/60/2 3/167/2 1/61/2
f 26/58/8 1/1/1 3/3/1
f 29/63/3 31/168/3 30/64/3
f 28/66/5 30/169/5 27/67/9
f 29/68/4 1/170/4 26/69/8
f 32/71/6 36/171/6 33/72/6
f 14/74/2 37/172/2 35/75/2
f 36/77/1 35/173/1 37/78/1
f 20/50/3 32/174/3 34/80/3
f 34/81/5 33/175/5 37/82/5
f 20/76/4 35/75/4 36/84/4
f 65/176/18 66/177/16 51/178/15
f 66/179/16 41/180/13 52/181/11
f 38/105/10 25/182/7 50/103/14
f 42/91/1 49/183/1 43/92/1
f 45/94/3 48/129/3 46/95/3
f 46/97/5 44/184/5 43/98/5
f 48/100/4 45/185/4 49/101/4
f 50/186/14 27/67/9 30/169/5
f 63/157/16 40/159/12 39/187/11
f 66/179/16 65/188/18 41/180/13
f 29/109/2 54/189/2 53/110/2
f 16/112/6 12/190/6 22/113/6
f 54/115/3 22/48/3 12/32/3
f 21/117/1 29/191/1 28/118/1
f 16/35/5 28/66/5 53/120/5
f 29/121/4 21/165/4 22/54/4
f 55/123/6 31/192/6 30/124/6
f 46/126/2 58/193/2 57/127/2
f 48/129/3 55/194/3 56/130/3
f 56/131/5 30/195/5 58/132/5
f 48/134/4 57/196/4 31/135/4
f 11/137/6 62/197/6 59/138/6
f 60/140/2 45/198/2 47/141/2
f 61/143/1 11/199/1 17/144/1
f 17/146/4 59/200/4 45/147/4
f 61/149/5 47/201/5 62/150/5
f 51/178/15 50/186/14 30/169/5
f 30/169/5 65/176/18 51/178/15
f 40/88/12 52/202/11 41/89/13
f 63/203/16 50/186/14 51/178/15
f 51/106/15 66/204/16 52/107/11
f 50/103/14 63/205/16 39/104/11
f 31/90/4 38/86/10 40/88/12
f 31/90/4 64/206/17 38/86/10
f 38/105/10 64/207/17 25/182/7
f 50/186/14 25/208/7 27/67/9
f 31/90/4 26/209/8 64/206/17
usemtl None.004
f 67/210/3 68/211/3 69/212/3
f 70/213/5 71/214/5 72/215/5
f 73/216/5 74/217/5 75/218/5
f 70/219/1 75/220/1 76/221/1
f 67/222/5 77/223/18 78/224/5
f 79/225/18 80/226/3 77/227/18
f 81/228/5 82/229/5 80/230/5
f 83/231/3 71/232/3 82/233/3
f 84/234/5 85/235/5 86/236/5
f 87/237/1 85/238/1 88/239/1
f 87/240/4 89/241/4 90/242/4
f 91/243/4 92/244/4 93/245/4
f 94/246/1 95/247/1 92/248/1
f 96/249/4 95/250/4 97/251/4
f 98/252/4 99/253/4 100/254/4
f 96/255/3 100/256/3 101/257/3
f 102/258/3 103/259/13 99/260/3
f 104/261/13 68/262/4 103/263/13
f 67/264/6 104/265/6 79/266/6
f 81/267/6 98/268/6 83/269/6
f 96/270/6 70/271/6 72/272/6
f 94/273/6 105/274/6 73/275/6
f 87/276/6 84/277/6 106/278/6
f 101/279/2 76/280/2 95/281/2
f 100/282/2 80/283/2 82/284/2
f 103/285/2 78/286/2 77/287/2
f 93/288/2 75/289/2 74/290/2
f 90/291/2 86/292/2 85/293/2
f 67/210/3 78/294/3 68/211/3
f 70/213/5 76/295/5 71/214/5
f 73/216/5 105/296/5 74/217/5
f 70/219/1 73/297/1 75/220/1
f 67/222/5 79/298/18 77/223/18
f 79/225/18 81/299/3 80/226/3
f 81/228/5 83/300/5 82/229/5
f 83/231/3 72/301/3 71/232/3
f 84/234/5 88/302/5 85/235/5
f 87/237/1 90/303/1 85/238/1
f 87/240/4 106/304/4 89/241/4
f 91/243/4 94/305/4 92/244/4
f 94/246/1 97/306/1 95/247/1
f 96/249/4 101/307/4 95/250/4
f 98/252/4 102/308/4 99/253/4
f 96/255/3 98/309/3 100/256/3
f 102/258/3 104/310/13 103/259/13
f 104/261/13 69/311/4 68/262/4
f 67/264/6 69/312/6 104/265/6
f 81/267/6 102/313/6 98/268/6
f 96/270/6 97/314/6 70/271/6
f 94/273/6 91/315/6 105/274/6
f 87/276/6 88/316/6 84/277/6
f 101/279/2 71/317/2 76/280/2
f 100/282/2 99/318/2 80/283/2
f 103/285/2 68/319/2 78/286/2
f 93/288/2 92/320/2 75/289/2
f 90/291/2 89/321/2 86/292/2
f 86/236/1 105/296/1 84/234/1
f 91/243/1 89/241/1 106/304/1
f 86/236/1 74/217/1 105/296/1
f 91/243/1 93/245/1 89/241/1
