# Blender v2.81 (sub 16) OBJ File: 'tank_container.blend'
# www.blender.org
mtllib tank_container.mtl
o Tank_Cube.001
v -0.437500 -0.500000 -0.187500
v -0.187500 -0.500000 -0.437500
v -0.187500 -0.500000 0.437500
v -0.437500 -0.500000 0.187500
v -0.187500 0.500000 -0.437500
v -0.437500 0.500000 -0.187500
v -0.437500 0.500000 0.187500
v -0.187500 0.500000 0.437500
v 0.187500 -0.500000 -0.437500
v 0.437500 -0.500000 -0.187500
v 0.437500 -0.500000 0.187500
v 0.187500 -0.500000 0.437500
v 0.437500 0.500000 -0.187500
v 0.187500 0.500000 -0.437500
v 0.187500 0.500000 0.437500
v 0.437500 0.500000 0.187500
v 0.000000 0.437500 0.437500
v 0.000000 0.437500 0.500000
v 0.054127 0.406250 0.437500
v 0.054127 0.406250 0.500000
v 0.054127 0.343750 0.437500
v 0.054127 0.343750 0.500000
v -0.000000 0.312500 0.437500
v -0.000000 0.312500 0.500000
v -0.054127 0.343750 0.437500
v -0.054127 0.343750 0.500000
v -0.054127 0.406250 0.437500
v -0.054127 0.406250 0.500000
vt 0.265625 0.703125
vt 0.328125 0.546875
vt 0.484375 0.609375
vt 0.250000 0.781250
vt 0.000000 0.687500
vt 0.250000 0.687500
vt 0.250000 1.000000
vt 0.000000 0.906250
vt 0.250000 0.906250
vt 0.250000 0.343750
vt 0.000000 0.250000
vt 0.250000 0.250000
vt 0.265625 0.937500
vt 0.328125 0.781250
vt 0.484375 0.843750
vt 0.250000 0.359375
vt 0.000000 0.453125
vt 0.000000 0.359375
vt -0.000000 0.234375
vt 0.250000 0.140625
vt 0.250000 0.234375
vt 0.250000 0.578125
vt 0.000000 0.671875
vt 0.000000 0.578125
vt 0.000000 0.890625
vt 0.250000 0.796875
vt 0.250000 0.890625
vt 0.250000 0.562500
vt 0.000000 0.468750
vt 0.250000 0.468750
vt 0.656252 0.984377
vt 0.671873 0.999998
vt 0.656252 0.999998
vt 0.625002 0.999998
vt 0.640623 0.984377
vt 0.640623 0.999998
vt 0.593752 0.984377
vt 0.609373 0.999998
vt 0.593752 0.999998
vt 0.562502 0.999998
vt 0.578123 0.984377
vt 0.578123 0.999998
vt 0.515625 0.968750
vt 0.502093 0.945312
vt 0.529157 0.945312
vt 0.546875 1.000000
vt 0.531250 0.984375
vt 0.546875 0.984375
vt 0.515625 1.000000
vt 0.500000 0.984375
vt 0.515625 0.984375
vt 0.484375 0.703125
vt 0.421875 0.765625
vt 0.328125 0.765625
vt 0.265625 0.609375
vt 0.421875 0.546875
vt 0.000000 0.781250
vt 0.000000 1.000000
vt 0.000000 0.343750
vt 0.484375 0.937500
vt 0.421875 1.000000
vt 0.328125 1.000000
vt 0.265625 0.843750
vt 0.421875 0.781250
vt 0.250000 0.453125
vt 0.000000 0.140625
vt 0.250000 0.671875
vt 0.000000 0.796875
vt 0.000000 0.562500
vt 0.671873 0.984377
vt 0.625002 0.984377
vt 0.609373 0.984377
vt 0.562502 0.984377
vt 0.529157 0.960938
vt 0.502093 0.960938
vt 0.515625 0.937500
vt 0.531250 1.000000
vt 0.500000 1.000000
vn 0.0000 -1.0000 0.0000
vn 1.0000 0.0000 0.0000
vn 0.0000 0.0000 1.0000
vn -1.0000 0.0000 0.0000
vn 0.0000 1.0000 0.0000
vn -0.7071 0.0000 -0.7071
vn -0.7071 0.0000 0.7071
vn 0.7071 0.0000 -0.7071
vn 0.7071 0.0000 0.7071
vn 0.0000 0.0000 -1.0000
vn 0.5000 0.8660 0.0000
vn 0.5000 -0.8660 0.0000
vn -0.5000 -0.8660 0.0000
vn -0.5000 0.8660 0.0000
usemtl None
s off
f 12/1/1 4/2/1 2/3/1
f 16/4/2 10/5/2 13/6/2
f 8/7/3 12/8/3 15/9/3
f 4/10/4 6/11/4 1/12/4
f 8/13/5 16/14/5 14/15/5
f 2/16/6 6/17/6 5/18/6
f 8/19/7 4/20/7 3/21/7
f 14/22/8 10/23/8 9/24/8
f 12/25/9 16/26/9 15/27/9
f 14/28/10 2/29/10 5/30/10
f 18/31/11 19/32/11 17/33/11
f 20/34/2 21/35/2 19/36/2
f 22/37/12 23/38/12 21/39/12
f 24/40/13 25/41/13 23/42/13
f 18/43/3 26/44/3 22/45/3
f 26/46/4 27/47/4 25/48/4
f 28/49/14 17/50/14 27/51/14
f 2/3/1 9/52/1 10/53/1
f 10/53/1 11/54/1 12/1/1
f 12/1/1 3/55/1 4/2/1
f 4/2/1 1/56/1 2/3/1
f 2/3/1 10/53/1 12/1/1
f 16/4/2 11/57/2 10/5/2
f 8/7/3 3/58/3 12/8/3
f 4/10/4 7/59/4 6/11/4
f 14/15/5 5/60/5 6/61/5
f 6/61/5 7/62/5 8/13/5
f 8/13/5 15/63/5 16/14/5
f 16/14/5 13/64/5 14/15/5
f 14/15/5 6/61/5 8/13/5
f 2/16/6 1/65/6 6/17/6
f 8/19/7 7/66/7 4/20/7
f 14/22/8 13/67/8 10/23/8
f 12/25/9 11/68/9 16/26/9
f 14/28/10 9/69/10 2/29/10
f 18/31/11 20/70/11 19/32/11
f 20/34/2 22/71/2 21/35/2
f 22/37/12 24/72/12 23/38/12
f 24/40/13 26/73/13 25/41/13
f 22/45/3 20/74/3 18/43/3
f 18/43/3 28/75/3 26/44/3
f 26/44/3 24/76/3 22/45/3
f 26/46/4 28/77/4 27/47/4
f 28/49/14 18/78/14 17/50/14
