# Blender v2.79 (sub 0) OBJ File: ''
# www.blender.org
mtllib transporter_chassis.mtl
o Import.001
v -0.875000 0.312500 0.687500
v -0.812500 0.312500 0.687500
v -0.812500 0.312500 1.250000
v -0.875000 0.312500 1.250000
v -0.812500 1.062500 0.687500
v -0.875000 1.062500 0.687500
v -0.875000 1.062500 1.250000
v -0.812500 1.062500 1.250000
v 0.875000 0.312500 0.687500
v 0.812500 0.312500 0.687500
v 0.812500 0.312501 0.062500
v 0.875000 0.312501 0.062500
v 0.812500 1.250000 0.687500
v 0.875000 1.250000 0.687500
v 0.875000 1.250000 0.062500
v 0.812500 1.250000 0.062500
v 0.812500 -1.000000 0.437500
v -0.812500 -1.000000 0.437500
v -0.812500 -1.000000 0.375000
v 0.812500 -1.000000 0.375000
v -0.812500 0.250000 0.437500
v 0.812500 0.250000 0.437500
v 0.812500 0.250000 0.375000
v -0.812500 0.250000 0.375000
v -0.875000 0.312500 0.062500
v -0.812500 0.312500 0.062500
v -0.875000 1.250000 0.687500
v -0.812500 1.250000 0.687500
v -0.812500 1.250000 0.062500
v -0.875000 1.250000 0.062500
v 0.875000 0.250000 0.437500
v -0.875000 0.250000 0.437500
v -0.875000 0.250000 0.062500
v 0.875000 0.250001 0.062500
v -0.875000 0.312500 0.437500
v 0.875000 0.312500 0.437500
v 0.875000 -1.062500 0.062500
v -0.875000 -1.062500 0.062500
v -0.875000 -1.062500 -0.000000
v 0.875000 -1.062500 -0.000000
v -0.875000 1.312500 0.062500
v 0.875000 1.312500 0.062500
v 0.875000 1.312500 0.000000
v -0.875000 1.312500 0.000000
v 0.812500 1.125000 0.687500
v -0.812500 1.125000 0.687500
v -0.812500 1.125000 0.625000
v 0.812500 1.125000 0.625000
v 0.812500 1.250000 0.625000
v -0.812500 1.250000 0.625000
v -0.812500 -1.062500 0.062500
v -0.812500 -1.062500 0.875000
v -0.875000 -1.062500 0.875000
v -0.812500 0.250000 0.062500
v -0.875000 0.250000 0.875000
v -0.812500 0.250000 0.875000
v 0.812500 -1.062500 0.437500
v -0.812500 -1.062500 0.437500
v 0.812500 -1.062500 0.062500
v 0.812500 -1.000000 0.062500
v -0.812500 -1.000000 0.062500
v 0.812500 0.312500 1.250000
v -0.812500 0.312500 1.187500
v 0.812500 0.312500 1.187500
v 0.812500 1.062500 1.250000
v 0.812500 1.062500 1.187500
v -0.812500 1.062500 1.187500
v 0.875000 -1.062500 0.875000
v 0.812500 -1.062500 0.875000
v 0.812500 0.250001 0.062500
v 0.812500 0.250000 0.875000
v 0.875000 0.250000 0.875000
v -0.875000 1.312500 0.687500
v 0.875000 1.312500 0.687500
v 0.875000 0.250000 1.250000
v -0.875000 0.250000 1.250000
v 0.875000 0.312500 1.250000
v 0.875000 1.062500 0.687500
v 0.875000 1.062500 1.250000
v 0.875000 1.125000 0.687500
v -0.875000 1.125000 0.687500
v -0.875000 1.125000 1.250000
v 0.875000 1.125000 1.250000
v 0.812500 1.062500 0.687500
vt 0.101563 0.457031
vt 0.093750 0.492188
vt 0.093750 0.457031
vt 0.203125 0.457031
vt 0.195313 0.492188
vt 0.195313 0.457031
vt 0.101563 0.492188
vt 0.093750 0.539063
vt 0.109375 0.492188
vt 0.101563 0.539063
vt 0.101563 0.492188
vt 0.000000 0.492188
vt 0.000000 0.457031
vt 0.125000 0.347656
vt 0.117188 0.386719
vt 0.117188 0.347656
vt 0.250000 0.347656
vt 0.242188 0.386719
vt 0.242188 0.347656
vt 0.125000 0.386719
vt 0.117188 0.445313
vt 0.132813 0.386719
vt 0.125000 0.445313
vt 0.125000 0.386719
vt 0.000000 0.347656
vt 0.000000 0.386719
vt 0.359375 0.687500
vt 0.156250 0.691406
vt 0.156250 0.687500
vt 0.718750 0.687500
vt 0.515625 0.691406
vt 0.515625 0.687500
vt 0.359375 0.691406
vt 0.156250 0.769531
vt 0.562500 0.691406
vt 0.359375 0.769531
vt 0.359375 0.691406
vt 0.000000 0.691406
vt 0.000000 0.687500
vt 0.492188 0.347656
vt 0.484375 0.386719
vt 0.484375 0.347656
vt 0.617188 0.347656
vt 0.609375 0.386719
vt 0.609375 0.347656
vt 0.492188 0.386719
vt 0.484375 0.445313
vt 0.500000 0.386719
vt 0.492188 0.445313
vt 0.492188 0.386719
vt 0.367188 0.386719
vt 0.367188 0.347656
vt 0.226563 0.308594
vt 0.007813 0.332031
vt 0.007813 0.308594
vt 0.453125 0.308594
vt 0.234375 0.332031
vt 0.234375 0.308594
vt 0.226563 0.332031
vt 0.007813 0.335938
vt 0.445313 0.332031
vt 0.226563 0.335938
vt 0.226563 0.332031
vt 0.000000 0.308594
vt 0.000000 0.332031
vt 0.515625 0.847656
vt 0.296875 0.851563
vt 0.296875 0.847656
vt 0.906250 0.847656
vt 0.687500 0.851563
vt 0.687500 0.847656
vt 0.781250 0.851563
vt 0.562500 1.000000
vt 0.562500 0.851563
vt 1.000000 0.851563
vt 0.781250 1.000000
vt 0.781250 0.851563
vt 0.000000 0.847656
vt 0.000000 0.851563
vt 0.812500 0.847656
vt 0.515625 0.851563
vt 0.218750 0.062500
vt 0.015625 0.066406
vt 0.015625 0.062500
vt 0.437500 0.062500
vt 0.234375 0.066406
vt 0.234375 0.062500
vt 0.218750 0.066406
vt 0.015625 0.074219
vt 0.421875 0.066406
vt 0.218750 0.074219
vt 0.218750 0.066406
vt 0.000000 0.066406
vt 0.000000 0.062500
vt 0.539063 0.550781
vt 0.531250 0.601563
vt 0.531250 0.550781
vt 0.710938 0.550781
vt 0.703125 0.601563
vt 0.703125 0.550781
vt 0.539063 0.601563
vt 0.531250 0.683594
vt 0.546875 0.601563
vt 0.539063 0.683594
vt 0.539063 0.601563
vt 0.367188 0.601563
vt 0.367188 0.550781
vt 0.210938 0.863281
vt 0.007813 0.886719
vt 0.007813 0.863281
vt 0.421875 0.863281
vt 0.218750 0.886719
vt 0.218750 0.863281
vt 0.210938 0.886719
vt 0.007813 0.890625
vt 0.414063 0.886719
vt 0.210938 0.890625
vt 0.210938 0.886719
vt 0.000000 0.886719
vt 0.000000 0.863281
vt 0.296875 0.246094
vt 0.093750 0.250000
vt 0.093750 0.246094
vt 0.593750 0.246094
vt 0.390625 0.250000
vt 0.390625 0.246094
vt 0.296875 0.250000
vt 0.093750 0.296875
vt 0.500000 0.250000
vt 0.296875 0.296875
vt 0.296875 0.250000
vt 0.000000 0.250000
vt 0.000000 0.246094
vt 0.171875 0.550781
vt 0.164063 0.601563
vt 0.164063 0.550781
vt 0.343750 0.550781
vt 0.335938 0.601563
vt 0.335938 0.550781
vt 0.171875 0.601563
vt 0.164063 0.683594
vt 0.179688 0.601563
vt 0.171875 0.683594
vt 0.171875 0.601563
vt 0.000000 0.601563
vt 0.000000 0.550781
vt 0.226563 0.011719
vt 0.007813 0.050781
vt 0.007813 0.011719
vt 0.453125 0.011719
vt 0.234375 0.050781
vt 0.234375 0.011719
vt 0.226563 0.050781
vt 0.007813 0.054688
vt 0.445313 0.050781
vt 0.226563 0.054688
vt 0.226563 0.050781
vt 0.000000 0.011719
vt 0.000000 0.050781
vt 0.226563 0.785156
vt 0.007813 0.835938
vt 0.007813 0.785156
vt 0.453125 0.785156
vt 0.234375 0.835938
vt 0.234375 0.785156
vt 0.445313 0.835938
vt 0.226563 0.839844
vt 0.226563 0.835938
vt 0.000000 0.835938
vt 0.000000 0.785156
vt 0.226563 0.835938
vt 0.226563 0.902344
vt 0.007813 0.937500
vt 0.007813 0.902344
vt 0.453125 0.902344
vt 0.234375 0.937500
vt 0.234375 0.902344
vt 0.226563 0.937500
vt 0.007813 0.941406
vt 0.445313 0.937500
vt 0.226563 0.941406
vt 0.226563 0.937500
vt 0.000000 0.937500
vt 0.000000 0.902344
vt 0.468750 0.457031
vt 0.460938 0.492188
vt 0.460938 0.457031
vt 0.570313 0.457031
vt 0.562500 0.492188
vt 0.562500 0.457031
vt 0.468750 0.492188
vt 0.460938 0.539063
vt 0.476563 0.492188
vt 0.468750 0.539063
vt 0.468750 0.492188
vt 0.367188 0.492188
vt 0.367188 0.457031
vt 0.203125 0.492188
vt 0.101563 0.539063
vt 0.109375 0.539063
vt 0.250000 0.386719
vt 0.125000 0.445313
vt 0.132813 0.445313
vt 0.718750 0.691406
vt 0.359375 0.769531
vt 0.562500 0.769531
vt 0.617188 0.386719
vt 0.492188 0.445313
vt 0.500000 0.445313
vt 0.453125 0.332031
vt 0.226563 0.335938
vt 0.445313 0.335938
vt 0.906250 0.851563
vt 0.781250 1.000000
vt 1.000000 1.000000
vt 0.812500 0.851563
vt 0.437500 0.066406
vt 0.218750 0.074219
vt 0.421875 0.074219
vt 0.710938 0.601563
vt 0.539063 0.683594
vt 0.546875 0.683594
vt 0.421875 0.886719
vt 0.210938 0.890625
vt 0.414063 0.890625
vt 0.593750 0.250000
vt 0.296875 0.296875
vt 0.500000 0.296875
vt 0.343750 0.601563
vt 0.171875 0.683594
vt 0.179688 0.683594
vt 0.453125 0.050781
vt 0.226563 0.054688
vt 0.445313 0.054688
vt 0.453125 0.835938
vt 0.445313 0.839844
vt 0.453125 0.937500
vt 0.226563 0.941406
vt 0.445313 0.941406
vt 0.570313 0.492188
vt 0.468750 0.539063
vt 0.476563 0.539063
vn 0.0000 -1.0000 0.0000
vn 0.0000 1.0000 0.0000
vn 0.0000 -0.0000 1.0000
vn 0.0000 0.0000 -1.0000
vn -1.0000 -0.0000 -0.0000
vn 1.0000 -0.0000 0.0000
usemtl None
s off
f 2/1/1 4/2/1 1/3/1
f 6/4/2 8/5/2 5/6/2
f 3/7/3 7/8/3 4/2/3
f 5/9/4 1/10/4 6/11/4
f 1/3/5 7/12/5 6/13/5
f 5/6/6 3/7/6 2/1/6
f 10/14/1 12/15/1 9/16/1
f 14/17/2 16/18/2 13/19/2
f 11/20/4 15/21/4 12/15/4
f 13/22/3 9/23/3 14/24/3
f 14/25/6 12/15/6 15/26/6
f 13/19/5 11/20/5 10/14/5
f 18/27/1 20/28/1 17/29/1
f 22/30/2 24/31/2 21/32/2
f 19/33/4 23/34/4 20/28/4
f 21/35/3 17/36/3 22/37/3
f 17/29/6 23/38/6 22/39/6
f 21/32/5 19/33/5 18/27/5
f 1/40/1 26/41/1 2/42/1
f 28/43/2 30/44/2 27/45/2
f 25/46/4 29/47/4 26/41/4
f 27/48/3 2/49/3 28/50/3
f 2/42/6 29/51/6 28/52/6
f 27/45/5 25/46/5 1/40/5
f 32/53/1 34/54/1 31/55/1
f 36/56/2 25/57/2 35/58/2
f 33/59/4 12/60/4 34/54/4
f 35/61/3 31/62/3 36/63/3
f 36/64/6 34/54/6 12/65/6
f 32/53/5 25/57/5 33/59/5
f 38/66/1 40/67/1 37/68/1
f 42/69/2 44/70/2 41/71/2
f 39/72/4 43/73/4 40/74/4
f 41/75/3 37/76/3 42/77/3
f 42/78/6 40/67/6 43/79/6
f 41/80/5 39/81/5 38/66/5
f 46/82/1 48/83/1 45/84/1
f 13/85/2 50/86/2 28/87/2
f 47/88/4 49/89/4 48/83/4
f 28/90/3 45/91/3 13/92/3
f 45/84/6 49/93/6 13/94/6
f 28/87/5 47/88/5 46/82/5
f 51/95/1 53/96/1 38/97/1
f 33/98/2 56/99/2 54/100/2
f 52/101/3 55/102/3 53/96/3
f 54/103/4 38/104/4 33/105/4
f 38/97/5 55/106/5 33/107/5
f 54/100/6 52/101/6 51/95/6
f 58/108/1 59/109/1 57/110/1
f 17/111/2 61/112/2 18/113/2
f 51/114/4 60/115/4 59/109/4
f 18/116/3 57/117/3 17/118/3
f 57/110/6 60/119/6 17/120/6
f 18/113/5 51/114/5 58/108/5
f 3/121/1 64/122/1 62/123/1
f 65/124/2 67/125/2 8/126/2
f 63/127/4 66/128/4 64/122/4
f 8/129/3 62/130/3 65/131/3
f 62/123/6 66/132/6 65/133/6
f 3/121/5 67/125/5 63/127/5
f 37/134/1 69/135/1 59/136/1
f 70/137/2 72/138/2 34/139/2
f 68/140/3 71/141/3 69/135/3
f 34/142/4 59/143/4 70/144/4
f 59/136/5 71/145/5 70/146/5
f 34/139/6 68/140/6 37/134/6
f 41/147/2 74/148/2 42/149/2
f 15/150/1 27/151/1 30/152/1
f 73/153/3 14/154/3 74/148/3
f 30/155/4 42/156/4 15/157/4
f 15/158/6 74/148/6 14/159/6
f 41/147/5 27/151/5 73/153/5
f 76/160/1 31/161/1 75/162/1
f 77/163/2 35/164/2 4/165/2
f 4/166/3 75/167/3 77/168/3
f 75/162/6 36/169/6 77/170/6
f 4/165/5 32/171/5 76/160/5
f 78/172/1 7/173/1 6/174/1
f 81/175/2 83/176/2 80/177/2
f 79/178/3 82/179/3 7/173/3
f 80/180/4 6/181/4 81/182/4
f 6/174/5 82/183/5 81/184/5
f 80/177/6 79/178/6 78/172/6
f 9/185/1 62/186/1 10/187/1
f 84/188/2 79/189/2 78/190/2
f 77/191/3 65/192/3 62/186/3
f 78/193/4 10/194/4 84/195/4
f 10/187/5 65/196/5 84/197/5
f 78/190/6 77/191/6 9/185/6
f 2/1/1 3/7/1 4/2/1
f 6/4/2 7/198/2 8/5/2
f 3/7/3 8/199/3 7/8/3
f 5/9/4 2/200/4 1/10/4
f 1/3/5 4/2/5 7/12/5
f 5/6/6 8/5/6 3/7/6
f 10/14/1 11/20/1 12/15/1
f 14/17/2 15/201/2 16/18/2
f 11/20/4 16/202/4 15/21/4
f 13/22/3 10/203/3 9/23/3
f 14/25/6 9/16/6 12/15/6
f 13/19/5 16/18/5 11/20/5
f 18/27/1 19/33/1 20/28/1
f 22/30/2 23/204/2 24/31/2
f 19/33/4 24/205/4 23/34/4
f 21/35/3 18/206/3 17/36/3
f 17/29/6 20/28/6 23/38/6
f 21/32/5 24/31/5 19/33/5
f 1/40/1 25/46/1 26/41/1
f 28/43/2 29/207/2 30/44/2
f 25/46/4 30/208/4 29/47/4
f 27/48/3 1/209/3 2/49/3
f 2/42/6 26/41/6 29/51/6
f 27/45/5 30/44/5 25/46/5
f 32/53/1 33/59/1 34/54/1
f 36/56/2 12/210/2 25/57/2
f 33/59/4 25/211/4 12/60/4
f 35/61/3 32/212/3 31/62/3
f 36/64/6 31/55/6 34/54/6
f 32/53/5 35/58/5 25/57/5
f 38/66/1 39/81/1 40/67/1
f 42/69/2 43/213/2 44/70/2
f 39/72/4 44/214/4 43/73/4
f 41/75/3 38/215/3 37/76/3
f 42/78/6 37/68/6 40/67/6
f 41/80/5 44/216/5 39/81/5
f 46/82/1 47/88/1 48/83/1
f 13/85/2 49/217/2 50/86/2
f 47/88/4 50/218/4 49/89/4
f 28/90/3 46/219/3 45/91/3
f 45/84/6 48/83/6 49/93/6
f 28/87/5 50/86/5 47/88/5
f 51/95/1 52/101/1 53/96/1
f 33/98/2 55/220/2 56/99/2
f 52/101/3 56/221/3 55/102/3
f 54/103/4 51/222/4 38/104/4
f 38/97/5 53/96/5 55/106/5
f 54/100/6 56/99/6 52/101/6
f 58/108/1 51/114/1 59/109/1
f 17/111/2 60/223/2 61/112/2
f 51/114/4 61/224/4 60/115/4
f 18/116/3 58/225/3 57/117/3
f 57/110/6 59/109/6 60/119/6
f 18/113/5 61/112/5 51/114/5
f 3/121/1 63/127/1 64/122/1
f 65/124/2 66/226/2 67/125/2
f 63/127/4 67/227/4 66/128/4
f 8/129/3 3/228/3 62/130/3
f 62/123/6 64/122/6 66/132/6
f 3/121/5 8/126/5 67/125/5
f 37/134/1 68/140/1 69/135/1
f 70/137/2 71/229/2 72/138/2
f 68/140/3 72/230/3 71/141/3
f 34/142/4 37/231/4 59/143/4
f 59/136/5 69/135/5 71/145/5
f 34/139/6 72/138/6 68/140/6
f 41/147/2 73/153/2 74/148/2
f 15/150/1 14/232/1 27/151/1
f 73/153/3 27/233/3 14/154/3
f 30/155/4 41/234/4 42/156/4
f 15/158/6 42/149/6 74/148/6
f 41/147/5 30/152/5 27/151/5
f 76/160/1 32/171/1 31/161/1
f 77/163/2 36/235/2 35/164/2
f 4/166/3 76/236/3 75/167/3
f 75/162/6 31/161/6 36/169/6
f 4/165/5 35/164/5 32/171/5
f 78/172/1 79/178/1 7/173/1
f 81/175/2 82/237/2 83/176/2
f 79/178/3 83/238/3 82/179/3
f 80/180/4 78/239/4 6/181/4
f 6/174/5 7/173/5 82/183/5
f 80/177/6 83/176/6 79/178/6
f 9/185/1 77/191/1 62/186/1
f 84/188/2 65/240/2 79/189/2
f 77/191/3 79/241/3 65/192/3
f 78/193/4 9/242/4 10/194/4
f 10/187/5 62/186/5 65/196/5
f 78/190/6 79/189/6 77/191/6
