# Blender v2.79 (sub 0) OBJ File: 'watch.blend'
# www.blender.org
mtllib watch.mtl
o Circle
v 0.311791 -0.323422 -0.503299
v 0.189511 -0.220234 -0.503299
v 0.190007 -0.219647 -0.511103
v 0.312286 -0.322834 -0.511103
v 0.191475 -0.217907 -0.518606
v 0.313754 -0.321095 -0.518606
v 0.193858 -0.215082 -0.525522
v 0.316138 -0.318270 -0.525522
v 0.197067 -0.211280 -0.531583
v 0.319346 -0.314468 -0.531583
v 0.200976 -0.206648 -0.536558
v 0.323256 -0.309836 -0.536558
v 0.205436 -0.201363 -0.540254
v 0.327716 -0.304550 -0.540254
v 0.210275 -0.195628 -0.542531
v 0.332555 -0.298816 -0.542531
v 0.215308 -0.189664 -0.543299
v 0.337588 -0.292852 -0.543299
v 0.220340 -0.183700 -0.542531
v 0.342620 -0.286888 -0.542531
v 0.225180 -0.177966 -0.540254
v 0.347460 -0.281153 -0.540254
v 0.229640 -0.172680 -0.536558
v 0.351920 -0.275868 -0.536558
v 0.233549 -0.168048 -0.531583
v 0.355829 -0.271236 -0.531583
v 0.236757 -0.164246 -0.525522
v 0.359037 -0.267434 -0.525522
v 0.239141 -0.161421 -0.518606
v 0.361421 -0.264609 -0.518606
v 0.240609 -0.159682 -0.511103
v 0.362889 -0.262869 -0.511103
v 0.241105 -0.159094 -0.503299
v 0.363384 -0.262282 -0.503299
v 0.240609 -0.159682 -0.495495
v 0.362889 -0.262869 -0.495495
v 0.239141 -0.161421 -0.487992
v 0.361421 -0.264609 -0.487992
v 0.236757 -0.164246 -0.481076
v 0.359037 -0.267434 -0.481076
v 0.233549 -0.168048 -0.475015
v 0.355829 -0.271236 -0.475015
v 0.229640 -0.172680 -0.470040
v 0.351920 -0.275868 -0.470040
v 0.225180 -0.177966 -0.466344
v 0.347460 -0.281153 -0.466344
v 0.220340 -0.183700 -0.464068
v 0.342620 -0.286888 -0.464068
v 0.215308 -0.189664 -0.463299
v 0.337588 -0.292852 -0.463299
v 0.210275 -0.195628 -0.464068
v 0.332555 -0.298816 -0.464068
v 0.205436 -0.201363 -0.466344
v 0.327716 -0.304550 -0.466344
v 0.200976 -0.206648 -0.470040
v 0.323256 -0.309836 -0.470040
v 0.197067 -0.211280 -0.475015
v 0.319346 -0.314468 -0.475015
v 0.193858 -0.215082 -0.481076
v 0.316138 -0.318270 -0.481076
v 0.191475 -0.217907 -0.487992
v 0.313754 -0.321095 -0.487992
v 0.190007 -0.219647 -0.495495
v 0.312286 -0.322834 -0.495495
v -0.078036 -0.391555 -0.419360
v 0.000000 -0.399241 -0.419360
v 0.078036 -0.391555 -0.419360
v 0.153073 -0.368793 -0.419360
v 0.222228 -0.331829 -0.419360
v 0.282842 -0.282084 -0.419360
v 0.332588 -0.221469 -0.419360
v 0.369552 -0.152314 -0.419360
v 0.392314 -0.077277 -0.419360
v 0.400000 0.000759 -0.419360
v 0.392314 0.078795 -0.419360
v 0.369552 0.153832 -0.419360
v 0.332588 0.222987 -0.419360
v 0.282843 0.283602 -0.419360
v 0.222228 0.333347 -0.419360
v 0.153074 0.370311 -0.419360
v 0.078036 0.393073 -0.419360
v 0.000000 0.400759 -0.419360
v -0.078036 0.393073 -0.419360
v -0.153073 0.370311 -0.419360
v -0.222228 0.333347 -0.419360
v -0.282843 0.283602 -0.419360
v -0.332588 0.222987 -0.419360
v -0.369552 0.153832 -0.419360
v -0.392314 0.078795 -0.419360
v -0.400000 0.000759 -0.419360
v -0.392314 -0.077277 -0.419360
v -0.369552 -0.152314 -0.419360
v -0.332588 -0.221469 -0.419360
v -0.282843 -0.282084 -0.419360
v -0.222228 -0.331829 -0.419360
v -0.153073 -0.368793 -0.419360
v -0.078036 -0.391555 -0.619360
v -0.153073 -0.368793 -0.619360
v -0.222228 -0.331829 -0.619360
v -0.282843 -0.282084 -0.619360
v -0.332588 -0.221469 -0.619360
v -0.369552 -0.152314 -0.619360
v -0.392314 -0.077277 -0.619360
v -0.400000 0.000759 -0.619360
v -0.392314 0.078795 -0.619360
v -0.369552 0.153832 -0.619360
v -0.332588 0.222987 -0.619360
v -0.282843 0.283602 -0.619360
v -0.222228 0.333347 -0.619360
v -0.153073 0.370311 -0.619360
v -0.078036 0.393073 -0.619360
v 0.000000 0.400759 -0.619360
v 0.078036 0.393073 -0.619360
v 0.153074 0.370311 -0.619360
v 0.222228 0.333347 -0.619360
v 0.282843 0.283602 -0.619360
v 0.332588 0.222987 -0.619360
v 0.369552 0.153832 -0.619360
v 0.392314 0.078795 -0.619360
v 0.400000 0.000759 -0.619360
v 0.392314 -0.077277 -0.619360
v 0.369552 -0.152314 -0.619360
v 0.332588 -0.221469 -0.619360
v 0.282842 -0.282084 -0.619360
v 0.222228 -0.331829 -0.619360
v 0.153073 -0.368793 -0.619360
v 0.078036 -0.391555 -0.619360
v 0.000000 -0.399241 -0.619360
v -0.233437 -0.582834 -0.003779
v 0.233437 -0.582834 -0.003780
v 0.233437 -0.571620 0.110074
v -0.233437 -0.571620 0.110074
v 0.233437 -0.538410 0.219552
v -0.233437 -0.538410 0.219552
v 0.233437 -0.484480 0.320447
v -0.233437 -0.484480 0.320447
v 0.233437 -0.411903 0.408883
v -0.233437 -0.411903 0.408883
v 0.233438 -0.323468 0.481460
v -0.233437 -0.323468 0.481460
v 0.233438 -0.222572 0.535390
v -0.233437 -0.222572 0.535390
v 0.233438 -0.113094 0.568600
v -0.233437 -0.113094 0.568600
v 0.233438 0.000759 0.579813
v -0.233437 0.000759 0.579813
v 0.233438 0.114613 0.568600
v -0.233437 0.114613 0.568600
v 0.233438 0.224091 0.535390
v -0.233437 0.224091 0.535390
v 0.233438 0.324986 0.481460
v -0.233437 0.324986 0.481460
v 0.233437 0.413422 0.408883
v -0.233437 0.413422 0.408883
v 0.233437 0.485999 0.320447
v -0.233437 0.485999 0.320447
v 0.233437 0.539929 0.219552
v -0.233437 0.539929 0.219552
v 0.233437 0.573139 0.110073
v -0.233437 0.573139 0.110074
v 0.233437 0.584352 -0.003780
v -0.233437 0.584352 -0.003780
v 0.233437 0.573139 -0.117633
v -0.233437 0.573139 -0.117633
v 0.233437 0.539929 -0.227111
v -0.233437 0.539929 -0.227111
v 0.233437 0.485999 -0.328007
v -0.233437 0.485999 -0.328007
v 0.233437 0.413422 -0.416443
v -0.233437 0.413422 -0.416443
v 0.233437 0.324986 -0.489020
v -0.233437 0.324986 -0.489020
v 0.233437 0.224090 -0.542949
v -0.233437 0.224090 -0.542949
v 0.233437 0.114612 -0.576159
v -0.233437 0.114612 -0.576159
v 0.233437 0.000759 -0.587373
v -0.233437 0.000759 -0.587373
v 0.233437 -0.113094 -0.576159
v -0.233437 -0.113094 -0.576159
v 0.233437 -0.222572 -0.542949
v -0.233437 -0.222572 -0.542949
v 0.233437 -0.323468 -0.489019
v -0.233437 -0.323468 -0.489019
v 0.233437 -0.411904 -0.416442
v -0.233437 -0.411904 -0.416442
v 0.233437 -0.484481 -0.328006
v -0.233437 -0.484481 -0.328006
v 0.233437 -0.538410 -0.227110
v -0.233437 -0.538410 -0.227110
v 0.233437 -0.571620 -0.117632
v -0.233437 -0.571620 -0.117632
vt 0.390028 0.887696
vt 0.390028 0.824512
vt 0.385995 0.824768
vt 0.385995 0.887952
vt 0.382118 0.825526
vt 0.382118 0.888711
vt 0.378545 0.826758
vt 0.378545 0.889943
vt 0.277353 0.824512
vt 0.277353 0.907187
vt 0.279923 0.907187
vt 0.279923 0.824512
vt 0.283055 0.907187
vt 0.283055 0.824512
vt 0.286629 0.907187
vt 0.286629 0.824512
vt 0.290506 0.907187
vt 0.290506 0.824512
vt 0.294538 0.907187
vt 0.294538 0.824512
vt 0.298570 0.907187
vt 0.298571 0.824512
vt 0.302448 0.907187
vt 0.302448 0.824512
vt 0.306021 0.907187
vt 0.306021 0.824512
vt 0.309153 0.907187
vt 0.309153 0.824512
vt 0.311724 0.907187
vt 0.311724 0.824512
vt 0.314665 0.824512
vt 0.377850 0.824512
vt 0.376618 0.828085
vt 0.313433 0.828085
vt 0.375859 0.831962
vt 0.312675 0.831962
vt 0.375603 0.835995
vt 0.312419 0.835995
vt 0.375859 0.840027
vt 0.312675 0.840027
vt 0.376618 0.843904
vt 0.313433 0.843904
vt 0.377850 0.847478
vt 0.314665 0.847478
vt 0.242287 0.907187
vt 0.242287 0.824512
vt 0.244857 0.824512
vt 0.244857 0.907187
vt 0.247989 0.824512
vt 0.247989 0.907187
vt 0.251562 0.824512
vt 0.251562 0.907187
vt 0.255440 0.824512
vt 0.255440 0.907187
vt 0.259472 0.824512
vt 0.259472 0.907187
vt 0.263504 0.824512
vt 0.263504 0.907187
vt 0.267382 0.824512
vt 0.267382 0.907187
vt 0.270955 0.824512
vt 0.270955 0.907187
vt 0.274087 0.824512
vt 0.274087 0.907187
vt 0.276658 0.824512
vt 0.276658 0.907187
vt 0.401511 0.889943
vt 0.401511 0.826758
vt 0.397937 0.825526
vt 0.397937 0.888711
vt 0.313024 0.863600
vt 0.312419 0.867598
vt 0.312419 0.871642
vt 0.313024 0.875575
vt 0.314211 0.879248
vt 0.315936 0.882519
vt 0.318130 0.885262
vt 0.320709 0.887371
vt 0.323576 0.888766
vt 0.326619 0.889394
vt 0.329722 0.889229
vt 0.332765 0.888279
vt 0.335632 0.886579
vt 0.338212 0.884195
vt 0.340406 0.881219
vt 0.342129 0.877765
vt 0.343317 0.873967
vt 0.343922 0.869968
vt 0.343922 0.865925
vt 0.343316 0.861991
vt 0.342129 0.858318
vt 0.340405 0.855047
vt 0.338211 0.852305
vt 0.335631 0.850195
vt 0.332764 0.848800
vt 0.329721 0.848173
vt 0.326618 0.848337
vt 0.323575 0.849288
vt 0.320709 0.850988
vt 0.318129 0.853371
vt 0.315935 0.856347
vt 0.314211 0.859801
vt 0.394060 0.824768
vt 0.394060 0.887952
vt 0.376120 0.867598
vt 0.376120 0.871642
vt 0.375514 0.875575
vt 0.374327 0.879248
vt 0.372603 0.882519
vt 0.370409 0.885262
vt 0.367829 0.887371
vt 0.364962 0.888767
vt 0.361919 0.889394
vt 0.358816 0.889229
vt 0.355773 0.888279
vt 0.352907 0.886579
vt 0.350327 0.884195
vt 0.348133 0.881219
vt 0.346409 0.877765
vt 0.345222 0.873967
vt 0.344617 0.869968
vt 0.344617 0.865925
vt 0.345222 0.861991
vt 0.346410 0.858318
vt 0.348134 0.855047
vt 0.350328 0.852305
vt 0.352908 0.850195
vt 0.355774 0.848800
vt 0.358817 0.848173
vt 0.361920 0.848337
vt 0.364963 0.849288
vt 0.367830 0.850988
vt 0.370410 0.853371
vt 0.372604 0.856347
vt 0.374327 0.859801
vt 0.375515 0.863600
vt 0.705703 0.479738
vt 0.705703 0.520256
vt 0.697798 0.559996
vt 0.682292 0.597429
vt 0.659782 0.631119
vt 0.631131 0.659770
vt 0.597441 0.682280
vt 0.560008 0.697786
vt 0.520268 0.705691
vt 0.479750 0.705691
vt 0.440010 0.697786
vt 0.402576 0.682280
vt 0.368887 0.659769
vt 0.340236 0.631119
vt 0.317726 0.597429
vt 0.302220 0.559995
vt 0.294316 0.520256
vt 0.294316 0.479738
vt 0.302220 0.439998
vt 0.317726 0.402564
vt 0.340237 0.368875
vt 0.368887 0.340224
vt 0.402577 0.317713
vt 0.440011 0.302208
vt 0.479750 0.294303
vt 0.520268 0.294303
vt 0.560008 0.302208
vt 0.597442 0.317714
vt 0.631131 0.340224
vt 0.659782 0.368875
vt 0.682293 0.402565
vt 0.697798 0.439999
vt 0.705701 0.479742
vt 0.697796 0.440003
vt 0.682291 0.402569
vt 0.659780 0.368879
vt 0.631130 0.340228
vt 0.597440 0.317718
vt 0.560006 0.302212
vt 0.520267 0.294307
vt 0.479749 0.294307
vt 0.440009 0.302212
vt 0.402575 0.317717
vt 0.368886 0.340228
vt 0.340235 0.368879
vt 0.317724 0.402568
vt 0.302219 0.440002
vt 0.294314 0.479742
vt 0.294314 0.520260
vt 0.302218 0.559999
vt 0.317724 0.597433
vt 0.340235 0.631123
vt 0.368885 0.659773
vt 0.402575 0.682284
vt 0.440009 0.697790
vt 0.479748 0.705694
vt 0.520266 0.705694
vt 0.560006 0.697790
vt 0.597440 0.682284
vt 0.631129 0.659774
vt 0.659780 0.631123
vt 0.682291 0.597433
vt 0.697796 0.560000
vt 0.705701 0.520260
vt 0.949140 0.916051
vt 0.949140 0.884730
vt 0.845796 0.884730
vt 0.845796 0.916051
vt 0.518258 0.969033
vt 0.558580 0.969033
vt 0.558580 0.865688
vt 0.518258 0.865688
vt 0.845101 0.848997
vt 0.845101 0.884730
vt 0.741756 0.884730
vt 0.741756 0.848996
vt 0.949140 0.848996
vt 0.845796 0.848996
vt 0.845101 0.916051
vt 0.741756 0.916051
vt 0.949140 0.810223
vt 0.845796 0.810223
vt 0.999653 0.242287
vt 0.999653 0.273608
vt 0.896308 0.273608
vt 0.896308 0.242287
vt 0.949140 0.769900
vt 0.845796 0.769900
vt 0.999653 0.309341
vt 0.896308 0.309341
vt 0.949140 0.729577
vt 0.845796 0.729577
vt 0.999653 0.348115
vt 0.896308 0.348115
vt 0.949140 0.690804
vt 0.845796 0.690804
vt 0.999653 0.388438
vt 0.896308 0.388438
vt 0.949140 0.655070
vt 0.845796 0.655070
vt 0.999653 0.428761
vt 0.896308 0.428761
vt 0.949140 0.623749
vt 0.845796 0.623749
vt 0.999653 0.467534
vt 0.896308 0.467534
vt 0.845101 0.623749
vt 0.845101 0.655070
vt 0.741756 0.655070
vt 0.741756 0.623749
vt 0.999653 0.503268
vt 0.896308 0.503268
vt 0.845101 0.690804
vt 0.741756 0.690804
vt 0.598903 0.969033
vt 0.598903 0.865688
vt 0.999653 0.534589
vt 0.896308 0.534589
vt 0.845101 0.729577
vt 0.741756 0.729577
vt 0.637677 0.969033
vt 0.637677 0.865688
vt 0.412430 0.969033
vt 0.443751 0.969033
vt 0.443751 0.865688
vt 0.412430 0.865688
vt 0.845101 0.769900
vt 0.741756 0.769900
vt 0.673410 0.969033
vt 0.673410 0.865688
vt 0.479484 0.969033
vt 0.479484 0.865688
vt 0.845101 0.810223
vt 0.741756 0.810223
vt 0.704731 0.969033
vt 0.704732 0.865688
vt 0.482067 0.709955
vt 0.451217 0.993605
vt 0.355678 0.975109
vt 0.439892 0.703599
vt 0.265341 0.938606
vt 0.400117 0.688992
vt 0.183672 0.885232
vt 0.364269 0.666814
vt 0.113880 0.816871
vt 0.333673 0.637991
vt 0.058747 0.736062
vt 0.309467 0.603677
vt 0.020491 0.645885
vt 0.292562 0.565221
vt 0.000667 0.549826
vt 0.283602 0.524125
vt 0.000100 0.451624
vt 0.282936 0.481992
vt 0.018849 0.355107
vt 0.290599 0.440461
vt 0.056212 0.264047
vt 0.306304 0.401152
vt 0.110754 0.181996
vt 0.329456 0.365599
vt 0.180371 0.112154
vt 0.359171 0.335191
vt 0.262367 0.057242
vt 0.394309 0.311117
vt 0.353571 0.019399
vt 0.433517 0.294319
vt 0.450452 0.000100
vt 0.475283 0.285454
vt 0.549260 0.000100
vt 0.517998 0.284872
vt 0.646169 0.019405
vt 0.560011 0.292595
vt 0.737423 0.057270
vt 0.599701 0.308323
vt 0.819483 0.112228
vt 0.635540 0.331442
vt 0.889163 0.182143
vt 0.666149 0.361049
vt 0.943757 0.264290
vt 0.690352 0.395990
vt 0.981150 0.355461
vt 0.707228 0.434900
vt 0.999900 0.452090
vt 0.716137 0.476265
vt 0.999304 0.550393
vt 0.716750 0.518474
vt 0.979426 0.646523
vt 0.709058 0.559886
vt 0.941101 0.736732
vt 0.693366 0.598891
vt 0.885896 0.817527
vt 0.670281 0.633974
vt 0.816045 0.885824
vt 0.640683 0.663762
vt 0.734337 0.939087
vt 0.605684 0.687079
vt 0.643982 0.975438
vt 0.566587 0.702973
vt 0.548436 0.993736
vt 0.524841 0.710742
vn -0.6418 -0.7606 -0.0980
vn -0.6172 -0.7313 -0.2903
vn -0.5688 -0.6740 -0.4714
vn -0.4985 -0.5908 -0.6344
vn -0.4091 -0.4848 -0.7730
vn -0.3040 -0.3603 -0.8819
vn -0.1872 -0.2219 -0.9569
vn -0.0632 -0.0749 -0.9952
vn 0.0632 0.0749 -0.9952
vn 0.1872 0.2219 -0.9569
vn 0.3040 0.3603 -0.8819
vn 0.4091 0.4848 -0.7730
vn 0.4985 0.5908 -0.6344
vn 0.5688 0.6740 -0.4714
vn 0.6172 0.7313 -0.2903
vn 0.6418 0.7606 -0.0980
vn 0.6418 0.7606 0.0980
vn 0.6172 0.7313 0.2903
vn 0.5688 0.6740 0.4714
vn 0.4985 0.5908 0.6344
vn 0.4091 0.4848 0.7730
vn 0.3040 0.3603 0.8819
vn 0.1872 0.2218 0.9570
vn 0.0632 0.0749 0.9952
vn -0.0632 -0.0749 0.9952
vn -0.1872 -0.2218 0.9569
vn -0.3040 -0.3603 0.8819
vn -0.4091 -0.4849 0.7730
vn -0.4985 -0.5907 0.6344
vn -0.5688 -0.6740 0.4714
vn -0.7642 0.6449 -0.0000
vn -0.6171 -0.7313 0.2903
vn -0.6418 -0.7606 0.0980
vn 0.7642 -0.6449 0.0000
vn -0.0000 0.0000 1.0000
vn -0.0000 0.0000 -1.0000
vn -0.7730 -0.6344 0.0000
vn 0.0980 -0.9952 0.0000
vn 0.4714 0.8819 0.0000
vn -0.8819 -0.4714 0.0000
vn 0.6344 0.7730 0.0000
vn -0.9569 -0.2903 0.0000
vn 0.7730 0.6344 0.0000
vn -0.9952 -0.0980 0.0000
vn 0.8819 0.4714 0.0000
vn -0.9952 0.0980 0.0000
vn 0.9569 0.2903 0.0000
vn -0.9569 0.2903 0.0000
vn 0.9952 0.0980 0.0000
vn -0.8819 0.4714 0.0000
vn 0.9952 -0.0980 0.0000
vn -0.7730 0.6344 0.0000
vn 0.9569 -0.2903 0.0000
vn -0.6344 0.7730 0.0000
vn 0.8819 -0.4714 0.0000
vn -0.4714 0.8819 0.0000
vn -0.0980 -0.9952 0.0000
vn 0.7730 -0.6344 0.0000
vn -0.2903 0.9569 0.0000
vn -0.2903 -0.9569 0.0000
vn 0.6344 -0.7730 0.0000
vn -0.0980 0.9952 0.0000
vn -0.4714 -0.8819 0.0000
vn 0.4714 -0.8819 0.0000
vn 0.0980 0.9952 0.0000
vn -0.6344 -0.7730 0.0000
vn 0.2903 -0.9569 0.0000
vn 0.2903 0.9569 0.0000
vn 0.0000 -0.9952 0.0980
vn 0.0000 -0.9569 0.2903
vn 0.0000 -0.8819 0.4714
vn 0.0000 -0.7730 0.6344
vn 0.0000 -0.6344 0.7730
vn 0.0000 -0.4714 0.8819
vn 0.0000 -0.2903 0.9569
vn 0.0000 -0.0980 0.9952
vn 0.0000 0.0980 0.9952
vn 0.0000 0.2903 0.9569
vn 0.0000 0.4714 0.8819
vn 0.0000 0.6344 0.7730
vn 0.0000 0.7730 0.6344
vn 0.0000 0.8819 0.4714
vn 0.0000 0.9569 0.2903
vn 0.0000 0.9952 0.0980
vn -0.0000 0.9952 -0.0980
vn -0.0000 0.9569 -0.2903
vn -0.0000 0.8819 -0.4714
vn -0.0000 0.7730 -0.6344
vn 0.0000 0.6344 -0.7730
vn 0.0000 0.4714 -0.8819
vn 0.0000 0.2903 -0.9569
vn 0.0000 0.0980 -0.9952
vn 0.0000 -0.0980 -0.9952
vn 0.0000 -0.2903 -0.9569
vn 0.0000 -0.4714 -0.8819
vn 0.0000 -0.6344 -0.7730
vn 0.0000 -0.7730 -0.6344
vn 0.0000 -0.8819 -0.4714
vn 0.0000 -0.9569 -0.2903
vn -0.0000 -0.9952 -0.0980
usemtl watch
s off
f 1/1/1 2/2/1 3/3/1 4/4/1
f 4/4/2 3/3/2 5/5/2 6/6/2
f 6/6/3 5/5/3 7/7/3 8/8/3
f 8/9/4 7/10/4 9/11/4 10/12/4
f 10/12/5 9/11/5 11/13/5 12/14/5
f 12/14/6 11/13/6 13/15/6 14/16/6
f 14/16/7 13/15/7 15/17/7 16/18/7
f 16/18/8 15/17/8 17/19/8 18/20/8
f 18/20/9 17/19/9 19/21/9 20/22/9
f 20/22/10 19/21/10 21/23/10 22/24/10
f 22/24/11 21/23/11 23/25/11 24/26/11
f 24/26/12 23/25/12 25/27/12 26/28/12
f 26/28/13 25/27/13 27/29/13 28/30/13
f 28/31/14 27/32/14 29/33/14 30/34/14
f 30/34/15 29/33/15 31/35/15 32/36/15
f 32/36/16 31/35/16 33/37/16 34/38/16
f 34/38/17 33/37/17 35/39/17 36/40/17
f 36/40/18 35/39/18 37/41/18 38/42/18
f 38/42/19 37/41/19 39/43/19 40/44/19
f 40/45/20 39/46/20 41/47/20 42/48/20
f 42/48/21 41/47/21 43/49/21 44/50/21
f 44/50/22 43/49/22 45/51/22 46/52/22
f 46/52/23 45/51/23 47/53/23 48/54/23
f 48/54/24 47/53/24 49/55/24 50/56/24
f 50/56/25 49/55/25 51/57/25 52/58/25
f 52/58/26 51/57/26 53/59/26 54/60/26
f 54/60/27 53/59/27 55/61/27 56/62/27
f 56/62/28 55/61/28 57/63/28 58/64/28
f 58/64/29 57/63/29 59/65/29 60/66/29
f 60/67/30 59/68/30 61/69/30 62/70/30
f 3/71/31 2/72/31 63/73/31 61/74/31 59/75/31 57/76/31 55/77/31 53/78/31 51/79/31 49/80/31 47/81/31 45/82/31 43/83/31 41/84/31 39/85/31 37/86/31 35/87/31 33/88/31 31/89/31 29/90/31 27/91/31 25/92/31 23/93/31 21/94/31 19/95/31 17/96/31 15/97/31 13/98/31 11/99/31 9/100/31 7/101/31 5/102/31
f 62/70/32 61/69/32 63/103/32 64/104/32
f 64/104/33 63/103/33 2/2/33 1/1/33
f 1/105/34 4/106/34 6/107/34 8/108/34 10/109/34 12/110/34 14/111/34 16/112/34 18/113/34 20/114/34 22/115/34 24/116/34 26/117/34 28/118/34 30/119/34 32/120/34 34/121/34 36/122/34 38/123/34 40/124/34 42/125/34 44/126/34 46/127/34 48/128/34 50/129/34 52/130/34 54/131/34 56/132/34 58/133/34 60/134/34 62/135/34 64/136/34
s 1
f 65/137/35 66/138/35 67/139/35 68/140/35 69/141/35 70/142/35 71/143/35 72/144/35 73/145/35 74/146/35 75/147/35 76/148/35 77/149/35 78/150/35 79/151/35 80/152/35 81/153/35 82/154/35 83/155/35 84/156/35 85/157/35 86/158/35 87/159/35 88/160/35 89/161/35 90/162/35 91/163/35 92/164/35 93/165/35 94/166/35 95/167/35 96/168/35
f 97/169/36 98/170/36 99/171/36 100/172/36 101/173/36 102/174/36 103/175/36 104/176/36 105/177/36 106/178/36 107/179/36 108/180/36 109/181/36 110/182/36 111/183/36 112/184/36 113/185/36 114/186/36 115/187/36 116/188/36 117/189/36 118/190/36 119/191/36 120/192/36 121/193/36 122/194/36 123/195/36 124/196/36 125/197/36 126/198/36 127/199/36 128/200/36
f 94/201/37 93/202/37 101/203/37 100/204/37
f 67/205/38 66/206/38 128/207/38 127/208/38
f 80/209/39 79/210/39 115/211/39 114/212/39
f 93/202/40 92/213/40 102/214/40 101/203/40
f 79/210/41 78/215/41 116/216/41 115/211/41
f 92/213/42 91/217/42 103/218/42 102/214/42
f 78/219/43 77/220/43 117/221/43 116/222/43
f 91/217/44 90/223/44 104/224/44 103/218/44
f 77/220/45 76/225/45 118/226/45 117/221/45
f 90/223/46 89/227/46 105/228/46 104/224/46
f 76/225/47 75/229/47 119/230/47 118/226/47
f 89/227/48 88/231/48 106/232/48 105/228/48
f 75/229/49 74/233/49 120/234/49 119/230/49
f 88/231/50 87/235/50 107/236/50 106/232/50
f 74/233/51 73/237/51 121/238/51 120/234/51
f 87/235/52 86/239/52 108/240/52 107/236/52
f 73/237/53 72/241/53 122/242/53 121/238/53
f 86/243/54 85/244/54 109/245/54 108/246/54
f 72/241/55 71/247/55 123/248/55 122/242/55
f 85/244/56 84/249/56 110/250/56 109/245/56
f 66/206/57 65/251/57 97/252/57 128/207/57
f 71/247/58 70/253/58 124/254/58 123/248/58
f 84/249/59 83/255/59 111/256/59 110/250/59
f 65/251/60 96/257/60 98/258/60 97/252/60
f 70/259/61 69/260/61 125/261/61 124/262/61
f 83/255/62 82/263/62 112/264/62 111/256/62
f 96/257/63 95/265/63 99/266/63 98/258/63
f 69/260/64 68/267/64 126/268/64 125/261/64
f 82/263/65 81/269/65 113/270/65 112/264/65
f 95/265/66 94/271/66 100/272/66 99/266/66
f 68/267/67 67/205/67 127/208/67 126/268/67
f 81/269/68 80/209/68 114/212/68 113/270/68
f 129/273/69 130/274/69 131/275/69 132/276/69
f 132/276/70 131/275/70 133/277/70 134/278/70
f 134/278/71 133/277/71 135/279/71 136/280/71
f 136/280/72 135/279/72 137/281/72 138/282/72
f 138/282/73 137/281/73 139/283/73 140/284/73
f 140/284/74 139/283/74 141/285/74 142/286/74
f 142/286/75 141/285/75 143/287/75 144/288/75
f 144/288/76 143/287/76 145/289/76 146/290/76
f 146/290/77 145/289/77 147/291/77 148/292/77
f 148/292/78 147/291/78 149/293/78 150/294/78
f 150/294/79 149/293/79 151/295/79 152/296/79
f 152/296/80 151/295/80 153/297/80 154/298/80
f 154/298/81 153/297/81 155/299/81 156/300/81
f 156/300/82 155/299/82 157/301/82 158/302/82
f 158/302/83 157/301/83 159/303/83 160/304/83
f 160/304/84 159/303/84 161/305/84 162/306/84
f 162/306/85 161/305/85 163/307/85 164/308/85
f 164/308/86 163/307/86 165/309/86 166/310/86
f 166/310/87 165/309/87 167/311/87 168/312/87
f 168/312/88 167/311/88 169/313/88 170/314/88
f 170/314/89 169/313/89 171/315/89 172/316/89
f 172/316/90 171/315/90 173/317/90 174/318/90
f 174/318/91 173/317/91 175/319/91 176/320/91
f 176/320/92 175/319/92 177/321/92 178/322/92
f 178/322/93 177/321/93 179/323/93 180/324/93
f 180/324/94 179/323/94 181/325/94 182/326/94
f 182/326/95 181/325/95 183/327/95 184/328/95
f 184/328/96 183/327/96 185/329/96 186/330/96
f 186/330/97 185/329/97 187/331/97 188/332/97
f 188/332/98 187/331/98 189/333/98 190/334/98
f 190/334/99 189/333/99 191/335/99 192/336/99
f 192/336/100 191/335/100 130/274/100 129/273/100
