# Blender v2.79 (sub 0) OBJ File: 'wheel.blend'
# www.blender.org
mtllib wheel.mtl
o Plane
v 0.031250 0.062500 0.250000
v -0.031250 0.062500 0.250000
v -0.031250 0.250000 -0.062500
v -0.031250 0.250000 0.062500
v 0.031250 0.250000 -0.062500
v 0.031250 0.250000 0.062500
v -0.031250 0.125000 -0.187500
v 0.031250 0.125000 -0.187500
v -0.031250 0.125000 -0.125000
v 0.031250 0.125000 -0.125000
v -0.031250 0.187500 -0.125000
v 0.031250 0.187500 -0.125000
v -0.031250 0.187500 -0.062500
v 0.031250 0.187500 -0.062500
v 0.031250 0.062500 0.187500
v -0.031250 0.062500 0.187500
v 0.031250 0.125000 0.187500
v -0.031250 0.125000 0.187500
v 0.031250 0.125000 0.125000
v -0.031250 0.125000 0.125000
v 0.031250 0.187500 0.125000
v -0.031250 0.187500 0.125000
v 0.031250 0.187500 0.062500
v -0.031250 0.187500 0.062500
v 0.031250 0.062500 -0.187500
v -0.031250 0.062500 -0.187500
v 0.031250 0.062500 -0.250000
v -0.031250 0.062500 -0.250000
v -0.031250 -0.062500 -0.250000
v 0.031250 -0.062500 -0.250000
v -0.031250 -0.187500 -0.125000
v 0.031250 -0.187500 -0.125000
v -0.031250 -0.125000 -0.125000
v 0.031250 -0.125000 -0.125000
v -0.031250 -0.125000 -0.187500
v 0.031250 -0.125000 -0.187500
v -0.031250 -0.062500 -0.187500
v 0.031250 -0.062500 -0.187500
v 0.031250 -0.187500 -0.062500
v -0.031250 -0.187500 -0.062500
v 0.031250 -0.250000 -0.062500
v -0.031250 -0.250000 0.062500
v -0.031250 -0.250000 -0.062500
v 0.031250 -0.250000 0.062500
v -0.031250 -0.125000 0.187500
v 0.031250 -0.125000 0.187500
v -0.031250 -0.125000 0.125000
v 0.031250 -0.125000 0.125000
v -0.031250 -0.187500 0.125000
v 0.031250 -0.187500 0.125000
v -0.031250 -0.187500 0.062500
v 0.031250 -0.187500 0.062500
v 0.031250 -0.062500 0.187500
v -0.031250 -0.062500 0.187500
v 0.031250 -0.062500 0.250000
v -0.031250 -0.062500 0.250000
vt 0.500000 0.812500
vt 0.750000 0.750000
vt 0.750000 0.812500
vt 0.000000 0.875000
vt 0.250000 0.812500
vt 0.250000 0.875000
vt 0.750000 0.812500
vt 0.875000 0.875000
vt 0.750000 0.875000
vt 0.375000 1.000000
vt 0.250000 0.937500
vt 0.375000 0.937500
vt 0.375000 0.812500
vt 0.500000 0.875000
vt 0.375001 0.875000
vt 0.375000 0.812500
vt 0.250000 0.750000
vt 0.375000 0.750000
vt 0.500000 0.812500
vt 0.625000 0.875000
vt 0.500000 0.875000
vt 0.875000 0.812500
vt 0.750000 0.750000
vt 0.875000 0.750000
vt 0.875000 0.812500
vt 1.000000 0.875000
vt 0.875000 0.875000
vt 0.250000 0.812500
vt 0.125000 0.750000
vt 0.250000 0.750000
vt 0.250000 1.000000
vt 0.125000 0.937500
vt 0.250000 0.937500
vt 0.625000 0.812500
vt 0.750000 0.875000
vt 0.625000 0.875000
vt 0.875000 1.000000
vt 0.750000 0.937500
vt 0.875000 0.937500
vt 0.250000 0.812500
vt 0.375000 0.875000
vt 0.250000 0.875000
vt 0.500000 1.000000
vt 0.750000 0.937500
vt 0.750000 1.000000
vt 0.125000 1.000000
vt 0.000000 0.937500
vt 0.125000 0.937500
vt 0.500000 0.937500
vt 0.375000 0.875000
vt 0.500000 0.875000
vt 1.000000 0.937500
vt 0.875000 0.875000
vt 1.000000 0.875000
vt 0.375000 0.937500
vt 0.500000 1.000000
vt 0.375000 1.000000
vt 0.750000 0.937500
vt 0.625000 0.875000
vt 0.750000 0.875000
vt 1.000000 1.000000
vt 0.875000 0.937500
vt 1.000000 0.937500
vt 0.000000 0.937500
vt 0.250000 0.875000
vt 0.250000 0.937500
vt 0.625000 0.937500
vt 0.500000 0.875000
vt 0.625000 0.875000
vt 1.000000 0.812500
vt 0.875000 0.750000
vt 1.000000 0.750000
vt 0.500000 0.812500
vt 0.375000 0.750000
vt 0.500000 0.750000
vt 0.875000 0.937500
vt 0.750000 0.875000
vt 0.875000 0.875000
vt 0.125000 0.812500
vt 0.000000 0.750000
vt 0.125000 0.750000
vt 0.375000 0.937500
vt 0.250000 0.875000
vt 0.375000 0.875000
vt 0.625000 0.750000
vt 0.375000 0.687500
vt 0.625000 0.687500
vt 0.250000 0.687500
vt 0.750000 0.625000
vt 0.750000 0.687500
vt 0.875000 0.625000
vt 0.125000 0.562500
vt 0.875000 0.562500
vt 0.000000 0.562500
vt 1.000000 0.437500
vt 1.000000 0.562500
vt 0.125000 0.437500
vt 0.875000 0.375000
vt 0.875000 0.437500
vt 0.750000 0.312500
vt 0.250000 0.375000
vt 0.250000 0.312500
vt 0.375000 0.250000
vt 0.625000 0.312500
vt 0.375000 0.312500
vt 1.000000 0.562500
vt 0.000000 0.437500
vt 1.000000 0.437500
vt 0.875000 0.562500
vt 0.125000 0.625000
vt 0.125000 0.562500
vt 0.750000 0.625000
vt 0.250000 0.687500
vt 0.250000 0.625000
vt 0.625000 0.687500
vt 0.375000 0.750000
vt 0.375000 0.687500
vt 0.875000 0.375000
vt 0.125000 0.437500
vt 0.125000 0.375000
vt 0.750000 0.312500
vt 0.250000 0.375000
vt 0.250000 0.312500
vt 0.625000 0.250000
vt 0.375000 0.312500
vt 0.375000 0.250000
vt 0.500000 0.750000
vt 0.000000 0.812500
vt 0.875000 0.812500
vt 0.250000 1.000000
vt 0.500000 0.812500
vt 0.250000 0.812500
vt 0.625000 0.812500
vt 0.750000 0.812500
vt 1.000000 0.812500
vt 0.125000 0.812500
vt 0.125000 1.000000
vt 0.750000 0.812500
vt 0.750000 1.000000
vt 0.375000 0.812500
vt 0.500000 0.937500
vt 0.000000 1.000000
vt 0.375000 0.937500
vt 0.875000 0.937500
vt 0.500000 0.937500
vt 0.625000 0.937500
vt 0.875000 1.000000
vt 0.000000 0.875000
vt 0.500000 0.937500
vt 0.875000 0.812500
vt 0.375000 0.812500
vt 0.750000 0.937500
vt 0.000000 0.812500
vt 0.250000 0.937500
vt 0.375000 0.750000
vt 0.250000 0.625000
vt 0.125000 0.625000
vt 0.000000 0.437500
vt 0.125000 0.375000
vt 0.750000 0.375000
vt 0.625000 0.250000
vt 0.000000 0.562500
vt 0.875000 0.625000
vt 0.750000 0.687500
vt 0.625000 0.750000
vt 0.875000 0.437500
vt 0.750000 0.375000
vt 0.625000 0.312500
vn 0.0000 0.0000 1.0000
vn 0.0000 1.0000 0.0000
vn 0.0000 0.0000 -1.0000
vn 0.0000 -1.0000 -0.0000
vn 1.0000 0.0000 0.0000
vn -1.0000 0.0000 0.0000
usemtl None
s off
f 1/1/1 56/2/1 55/3/1
f 5/4/2 4/5/2 6/6/2
f 14/7/2 11/8/2 13/9/2
f 5/10/3 13/11/3 3/12/3
f 1/13/2 16/14/2 2/15/2
f 15/16/1 18/17/1 16/18/1
f 17/19/2 20/20/2 18/21/2
f 19/22/1 22/23/1 20/24/1
f 21/25/2 24/26/2 22/27/2
f 23/28/1 4/29/1 24/30/1
f 12/31/3 9/32/3 11/33/3
f 10/34/2 7/35/2 9/36/2
f 8/37/3 26/38/3 7/39/3
f 25/40/2 28/41/2 26/42/2
f 30/43/3 28/44/3 27/45/3
f 38/46/3 35/47/3 37/48/3
f 30/49/4 37/50/4 29/51/4
f 36/52/4 33/53/4 35/54/4
f 34/55/3 31/56/3 33/57/3
f 32/58/4 40/59/4 31/60/4
f 39/61/3 43/62/3 40/63/3
f 44/64/4 43/65/4 41/66/4
f 52/67/4 49/68/4 51/69/4
f 44/70/1 51/71/1 42/72/1
f 50/73/1 47/74/1 49/75/1
f 48/76/4 45/77/4 47/78/4
f 46/79/1 54/80/1 45/81/1
f 53/82/4 56/83/4 54/84/4
f 1/85/5 53/86/5 15/87/5
f 46/88/5 19/89/5 17/90/5
f 21/91/5 52/92/5 23/93/5
f 44/94/5 5/95/5 6/96/5
f 39/97/5 12/98/5 14/99/5
f 8/100/5 34/101/5 36/102/5
f 30/103/5 25/104/5 38/105/5
f 42/106/6 3/107/6 43/108/6
f 51/109/6 22/110/6 24/111/6
f 47/112/6 18/113/6 20/114/6
f 54/115/6 2/116/6 16/117/6
f 31/118/6 13/119/6 11/120/6
f 35/121/6 9/122/6 7/123/6
f 29/124/6 26/125/6 28/126/6
f 1/1/1 2/127/1 56/2/1
f 5/4/2 3/128/2 4/5/2
f 14/7/2 12/129/2 11/8/2
f 5/10/3 14/130/3 13/11/3
f 1/13/2 15/131/2 16/14/2
f 15/16/1 17/132/1 18/17/1
f 17/19/2 19/133/2 20/20/2
f 19/22/1 21/134/1 22/23/1
f 21/25/2 23/135/2 24/26/2
f 23/28/1 6/136/1 4/29/1
f 12/31/3 10/137/3 9/32/3
f 10/34/2 8/138/2 7/35/2
f 8/37/3 25/139/3 26/38/3
f 25/40/2 27/140/2 28/41/2
f 30/43/3 29/141/3 28/44/3
f 38/46/3 36/142/3 35/47/3
f 30/49/4 38/143/4 37/50/4
f 36/52/4 34/144/4 33/53/4
f 34/55/3 32/145/3 31/56/3
f 32/58/4 39/146/4 40/59/4
f 39/61/3 41/147/3 43/62/3
f 44/64/4 42/148/4 43/65/4
f 52/67/4 50/149/4 49/68/4
f 44/70/1 52/150/1 51/71/1
f 50/73/1 48/151/1 47/74/1
f 48/76/4 46/152/4 45/77/4
f 46/79/1 53/153/1 54/80/1
f 53/82/4 55/154/4 56/83/4
f 1/85/5 55/155/5 53/86/5
f 46/88/5 48/156/5 19/89/5
f 21/91/5 50/157/5 52/92/5
f 44/94/5 41/158/5 5/95/5
f 39/97/5 32/159/5 12/98/5
f 8/100/5 10/160/5 34/101/5
f 30/103/5 27/161/5 25/104/5
f 42/106/6 4/162/6 3/107/6
f 51/109/6 49/163/6 22/110/6
f 47/112/6 45/164/6 18/113/6
f 54/115/6 56/165/6 2/116/6
f 31/118/6 40/166/6 13/119/6
f 35/121/6 33/167/6 9/122/6
f 29/124/6 37/168/6 26/125/6
