# Blender v2.79 (sub 0) OBJ File: ''
# www.blender.org
mtllib wood_front.mtl
o Plane.001
v 0.031250 -0.500000 0.062500
v 0.031250 0.500000 -0.062500
v 0.031250 0.500000 0.062500
v -0.031250 0.500000 -0.062500
v -0.031250 -0.500000 0.062500
v -0.031250 0.500000 0.062500
v -0.031250 -0.500000 -0.062500
v 0.031250 -0.500000 -0.062500
vt 0.000000 0.062500
vt 0.166667 -0.000000
vt 0.166667 0.062500
vt 0.000000 0.000000
vt 0.166667 0.062500
vt 0.000000 0.062500
vt 0.020833 0.000000
vt 0.000000 0.031250
vt 0.000000 0.000000
vt 0.020833 0.000000
vt 0.000000 0.031250
vt 0.000000 0.000000
vt 0.166667 0.000000
vt 0.000000 0.031250
vt 0.000000 0.000000
vt 0.000000 0.093750
vt 0.166667 -0.000000
vt 0.020833 0.031250
vt 0.020833 0.031250
vt 0.166667 0.031250
vt 0.166667 0.093750
vn 1.0000 0.0000 -0.0000
vn -1.0000 0.0000 0.0000
vn 0.0000 -1.0000 0.0000
vn 0.0000 1.0000 0.0000
vn -0.0000 0.0000 -1.0000
vn 0.0000 0.0000 1.0000
usemtl None.001
s 1
f 1/1/1 2/2/1 3/3/1
f 4/4/2 5/5/2 6/6/2
f 1/7/3 7/8/3 8/9/3
f 2/10/4 6/11/4 3/12/4
f 8/13/5 4/14/5 2/15/5
f 3/3/6 5/16/6 1/1/6
f 1/1/1 8/9/1 2/2/1
f 4/4/2 7/17/2 5/5/2
f 1/7/3 5/18/3 7/8/3
f 2/10/4 4/19/4 6/11/4
f 8/13/5 7/20/5 4/14/5
f 3/3/6 6/21/6 5/16/6
