# Blender v2.81 (sub 16) OBJ File: 'car_wood.blend'
# www.blender.org
mtllib wood_body.mtl
o Car_Plane.001
v -0.500000 -0.812500 0.062500
v 0.500000 -0.812500 0.062500
v -0.500000 0.812500 0.062500
v 0.500000 0.812500 0.062500
v -0.500000 0.812500 0.500000
v 0.500000 0.812500 0.500000
v -0.500000 -0.812500 0.500000
v 0.500000 -0.812500 0.500000
v -0.500000 -0.625000 0.500000
v 0.500000 -0.625000 0.500000
v -0.500000 -0.625000 1.250000
v 0.500000 -0.625000 1.250000
v -0.500000 0.312500 0.500000
v 0.500000 0.312500 0.500000
v -0.500000 0.312500 1.250000
v 0.500000 0.312500 1.250000
v -0.562500 -0.875000 0.000000
v 0.562500 -0.875000 0.000000
v -0.562500 0.875000 0.000000
v 0.562500 0.875000 0.000000
v -0.562500 0.875000 0.562500
v 0.562500 0.875000 0.562500
v -0.562500 -0.875000 0.562500
v 0.562500 -0.875000 0.562500
v -0.562500 -0.687500 0.562500
v 0.562500 -0.687500 0.562500
v -0.562500 0.375000 0.562500
v 0.562500 0.375000 0.562500
v -0.562500 0.375000 1.312500
v 0.562500 0.375000 1.312500
v -0.562500 -0.687500 1.312500
v 0.562500 -0.687500 1.312500
vt 0.265625 0.085938
vt 0.015625 0.289062
vt 0.015625 0.085938
vt 0.734375 0.742188
vt 0.453125 0.796875
vt 0.453125 0.742188
vt 0.734375 0.679688
vt 0.453125 0.734375
vt 0.453125 0.679688
vt 0.265625 0.023438
vt 0.015625 0.046875
vt 0.015625 0.023438
vt 1.000000 0.601562
vt 0.750000 0.695312
vt 0.750000 0.601562
vt 0.718750 0.039062
vt 0.468750 0.101562
vt 0.468750 0.039062
vt 1.000000 0.703125
vt 0.750000 0.796875
vt 0.750000 0.703125
vt 0.718750 0.179688
vt 0.468750 0.296875
vt 0.468750 0.179688
vt 0.984375 0.804688
vt 0.750000 0.898438
vt 0.750000 0.804688
vt 0.062500 0.781250
vt 0.015625 0.781250
vt 0.015625 0.726562
vt 0.468750 0.898438
vt 0.703125 0.804688
vt 0.703125 0.898438
vt 0.015625 0.789062
vt 0.062500 0.843750
vt 0.296875 0.843750
vt 0.000000 0.515625
vt 0.281250 0.296875
vt 0.000000 0.296875
vt 0.000000 0.718750
vt 0.281250 0.648438
vt 0.000000 0.648438
vt 0.000000 0.640625
vt 0.281250 0.570312
vt 0.000000 0.570312
vt 0.000000 0.078125
vt 0.281250 0.054688
vt 0.000000 0.054688
vt 0.453125 0.171875
vt 0.734375 0.109375
vt 0.453125 0.109375
vt 0.734375 0.640625
vt 0.453125 0.546875
vt 0.734375 0.546875
vt 0.734375 0.539062
vt 0.453125 0.445312
vt 0.734375 0.445312
vt 0.453125 0.437500
vt 0.734375 0.304688
vt 0.453125 0.304688
vt 0.734375 0.906250
vt 1.000000 1.000000
vt 0.734375 1.000000
vt 0.718750 1.000000
vt 0.453125 0.906250
vt 0.718750 0.906250
vt 0.312500 0.921875
vt 0.437500 0.921875
vt 0.437500 0.851562
vt 0.437500 0.929688
vt 0.437500 1.000000
vt 0.312500 1.000000
vt 0.265625 0.289062
vt 0.734375 0.796875
vt 0.734375 0.734375
vt 0.265625 0.046875
vt 1.000000 0.695312
vt 0.718750 0.101562
vt 1.000000 0.796875
vt 0.718750 0.296875
vt 0.984375 0.898438
vt 0.421875 0.726562
vt 0.296875 0.781250
vt 0.421875 0.781250
vt 0.468750 0.804688
vt 0.421875 0.843750
vt 0.421875 0.789062
vt 0.015625 0.843750
vt 0.281250 0.515625
vt 0.281250 0.718750
vt 0.281250 0.640625
vt 0.281250 0.078125
vt 0.734375 0.171875
vt 0.453125 0.640625
vt 0.453125 0.539062
vt 0.734375 0.437500
vt 1.000000 0.906250
vt 0.453125 1.000000
vt 0.000000 0.851562
vt 0.000000 0.921875
vt 0.046875 0.921875
vt 0.000000 1.000000
vt 0.000000 0.929688
vt 0.046875 1.000000
vn 0.0000 0.0000 1.0000
vn 0.0000 -1.0000 0.0000
vn 0.0000 1.0000 0.0000
vn 0.0000 0.0000 -1.0000
vn 1.0000 0.0000 0.0000
vn -1.0000 0.0000 0.0000
usemtl None
s off
f 2/1/1 3/2/1 1/3/1
f 4/4/2 5/5/2 3/6/2
f 1/7/3 8/8/3 2/9/3
f 7/10/4 10/11/4 8/12/4
f 9/13/3 12/14/3 10/15/3
f 6/16/4 13/17/4 5/18/4
f 14/19/2 15/20/2 13/21/2
f 15/22/4 12/23/4 11/24/4
f 13/25/5 11/26/5 9/27/5
f 9/28/5 7/29/5 1/30/5
f 16/31/6 10/32/6 12/33/6
f 2/34/6 10/35/6 14/36/6
f 19/37/4 18/38/4 17/39/4
f 21/40/3 20/41/3 19/42/3
f 24/43/2 17/44/2 18/45/2
f 26/46/1 23/47/1 24/48/1
f 27/49/1 22/50/1 21/51/1
f 29/52/3 28/53/3 27/54/3
f 32/55/2 25/56/2 26/57/2
f 29/58/1 32/59/1 30/60/1
f 27/61/6 31/62/6 29/63/6
f 30/64/5 26/65/5 28/66/5
f 27/67/6 21/68/6 19/69/6
f 20/70/5 22/71/5 28/72/5
f 2/1/1 4/73/1 3/2/1
f 4/4/2 6/74/2 5/5/2
f 1/7/3 7/75/3 8/8/3
f 7/10/4 9/76/4 10/11/4
f 9/13/3 11/77/3 12/14/3
f 6/16/4 14/78/4 13/17/4
f 14/19/2 16/79/2 15/20/2
f 15/22/4 16/80/4 12/23/4
f 13/25/5 15/81/5 11/26/5
f 1/30/5 3/82/5 13/83/5
f 3/82/5 5/84/5 13/83/5
f 13/83/5 9/28/5 1/30/5
f 16/31/6 14/85/6 10/32/6
f 6/86/6 4/87/6 14/36/6
f 4/87/6 2/34/6 14/36/6
f 2/34/6 8/88/6 10/35/6
f 19/37/4 20/89/4 18/38/4
f 21/40/3 22/90/3 20/41/3
f 24/43/2 23/91/2 17/44/2
f 26/46/1 25/92/1 23/47/1
f 27/49/1 28/93/1 22/50/1
f 29/52/3 30/94/3 28/53/3
f 32/55/2 31/95/2 25/56/2
f 29/58/1 31/96/1 32/59/1
f 27/61/6 25/97/6 31/62/6
f 30/64/5 32/98/5 26/65/5
f 19/69/6 17/99/6 27/67/6
f 17/99/6 23/100/6 25/101/6
f 25/101/6 27/67/6 17/99/6
f 24/102/5 18/103/5 26/104/5
f 18/103/5 20/70/5 28/72/5
f 26/104/5 18/103/5 28/72/5
